<?xml version="1.0" encoding="UTF-8" standalone="no"?>
<svg
   data-name="Layer 1"
   width="453.50909"
   height="400"
   viewBox="0 0 453.50909 400"
   version="1.1"
   id="svg60"
   sodipodi:docname="undraw_content_re_33px.svg"
   inkscape:version="1.1 (c68e22c387, 2021-05-23)"
   xmlns:inkscape="http://www.inkscape.org/namespaces/inkscape"
   xmlns:sodipodi="http://sodipodi.sourceforge.net/DTD/sodipodi-0.dtd"
   xmlns="http://www.w3.org/2000/svg"
   xmlns:svg="http://www.w3.org/2000/svg">
  <defs
     id="defs64" />
  <sodipodi:namedview
     id="namedview62"
     pagecolor="#ffffff"
     bordercolor="#999999"
     borderopacity="1"
     inkscape:pageshadow="0"
     inkscape:pageopacity="0"
     inkscape:pagecheckerboard="0"
     showgrid="false"
     fit-margin-top="0"
     fit-margin-left="0"
     fit-margin-right="0"
     fit-margin-bottom="0"
     inkscape:zoom="0.409474"
     inkscape:cx="826.6703"
     inkscape:cy="-61.053937"
     inkscape:window-width="1500"
     inkscape:window-height="930"
     inkscape:window-x="-6"
     inkscape:window-y="-6"
     inkscape:window-maximized="1"
     inkscape:current-layer="svg60" />
  <path
     d="m 836.29914,34.82 h -312 a 13,13 0 0 0 0,26 h 312 a 13,13 0 0 0 0,-26 z"
     fill="#ffffff"
     id="path16" />
  <path
     d="m 105.62355,111.43758 c -0.50236,0.0203 -21.910237,-1.464 -22.456787,-1.48242 l 1.9231,-19.19727 12.19336,-0.36718 23.299997,-43.15528 c -3.23157,-6.162 0.745,-14.33826 7.60026,-15.59852 13.81387,-3.13979 18.55923,18.59332 4.70321,21.48524 l -19.27222,52.7334 a 8.54966,8.54966 0 0 1 -7.99092,5.58203 z"
     fill="#cdcdcd"
     id="path22" />
  <path
     d="m 49.184343,121.32528 c -20.3716,0.05 -22.15993,-30.73767 -1.74315,-32.90723 53.988397,-3.26208 47.15636,-16.82179 51.25631,23.17516 a 4.5045,4.5045 0 0 1 -3.9946,4.95375 l -43.75025,4.68359 a 16.63489,16.63489 0 0 1 -1.76831,0.0947 z"
     fill="#000000"
     id="path24" />
  <path
     d="m 44.534973,23.9849 c 28.06453,15.96985 5.02494,58.10625 -23.56276,43.10183 C -7.0914274,51.11742 15.948163,8.981 44.534973,23.9849 Z"
     fill="#cdcdcd"
     id="path26" />
  <polygon
     points="88.141,545.534 70.047,545.535 70.049,592.823 82.308,592.822 "
     fill="#cdcdcd"
     id="polygon28"
     transform="translate(2.6375703e-6,-206.13)" />
  <path
     d="m 67.422083,398.07718 38.530727,-0.002 C 105.80563,378.19429 80.034613,383.92297 67.421403,383.19006 Z"
     fill="#303030"
     id="path30" />
  <polygon
     points="35.141,545.534 17.047,545.535 17.049,592.823 29.308,592.822 "
     fill="#cdcdcd"
     id="polygon32"
     transform="translate(2.6375703e-6,-206.13)" />
  <path
     d="m 14.422083,398.07718 38.53073,-0.002 c -0.14718,-19.88089 -25.9182,-14.15221 -38.53141,-14.88512 z"
     fill="#303030"
     id="path34" />
  <path
     d="m 30.981953,370.17782 c -2.963,-0.81313 -19.06382,1.646 -20.964,-1.582 -6.6360004,-66.51114 -5.1609104,-131.60265 9.56972,-167.37011 l 50.6482,-3.10059 c 11.32584,20.6755 37.360257,157.87463 21.6559,166.21643 l -20.19448,0.7201 a 5.01824,5.01824 0 0 1 -5.0393,-3.82618 l -16.89478,-96.11718 c -4.20722,-5.881 -12.4773,101.22422 -13.843,100.82371 a 4.97808,4.97808 0 0 1 -4.93826,4.23582 z"
     fill="#303030"
     id="path36" />
  <path
     d="M 17.979023,209.63289 C -7.5925674,182.87948 8.7186326,111.15424 7.8930926,112.67978 c 0.0701,-1.757 5.8620004,-28.816 20.8444804,-33.25691 11.8867,-3.92293 25.04321,7.81175 26.66606,19.68051 l 17.80635,105.15331 a 3.69838,3.69838 0 0 1 -1.01367,3.18 c 0.87553,2.72609 -52.96544,1.64996 -54.21729,2.1962 z"
     fill="#000000"
     id="path38" />
  <path
     d="m 26.278013,42.80326 c 2.24569,-1.41969 3.35253,-3.8545 4.65967,-6.07256 6.88544,-3.92419 14.80077,5.56884 22.08344,2.026 20.59268,-19.76915 -0.57431,-25.60141 -19.54049,-26.64389 -4.48038,-0.55218 -8.29173,1.03713 -11.6791,3.66209 -37.88569,-2.89341 -19.7162504,47.48278 4.19421,54.13638 4.22161,1.84908 7.38845,-1.8935 3.66551,-5.29548 -5.15089,-5.40014 -11.53162,-16.27005 -3.38324,-21.81254 z"
     fill="#303030"
     id="path40" />
  <path
     d="m 419.5091,20 h -274 a 17.02411,17.02411 0 0 0 -17,17 v 346 a 17.0241,17.0241 0 0 0 17,17 h 274 a 17.02411,17.02411 0 0 0 17,-17 V 37 a 17.02412,17.02412 0 0 0 -17,-17 z m 15,363 a 15.01828,15.01828 0 0 1 -15,15 h -274 a 15.01828,15.01828 0 0 1 -15,-15 V 37 a 15.01828,15.01828 0 0 1 15,-15 h 274 a 15.01828,15.01828 0 0 1 15,15 z"
     fill="#404040"
     id="path42" />
  <path
     d="m 68.306663,165.59774 c -9.0306,1.02306 -12.99534,-19.99215 -16.448,-25.34668 l 17.98486,-6.9834 5.85205,10.70312 49.028077,1.21875 a 10.67752,10.67752 0 0 1 0.95239,-1.12011 v 0 c 9.72314,-10.18066 25.55743,5.07331 15.87108,15.2321 a 11.03583,11.03583 0 0 1 -16.49657,-0.47722 c -1.21078,0.0864 -55.559837,6.80521 -56.743887,6.77344 z"
     fill="#cdcdcd"
     id="path44" />
  <path
     d="m 54.987813,155.56649 c -3.0069,2.89718 -26.09073,-37.77326 -27.77718,-38.92289 -11.66432,-18.12981 15.79569,-36.02983 27.661,-17.99809 l 23.99705,36.879 a 4.50461,4.50461 0 0 1 -1.31738,6.22558 c -1.09367,0.51205 -21.79168,14.9177 -22.56349,13.8164 z"
     fill="#000000"
     id="path46" />
  <path
     d="m 365.50951,259.5 h -166 c -16.957,-0.0817 -17.0275,-25.9115 8.4e-4,-26 h 165.99916 c 16.94506,0.0794 17.03689,25.91122 0,26 z"
     fill="#cccccc"
     id="path48" />
  <path
     d="m 365.50951,307.5 h -166 c -16.957,-0.0817 -17.0275,-25.9115 8.4e-4,-26 h 165.99916 c 16.94506,0.0794 17.03689,25.91122 0,26 z"
     fill="#cccccc"
     id="path50" />
  <path
     d="m 365.50951,355.5 h -166 c -16.957,-0.0817 -17.0275,-25.9115 8.4e-4,-26 h 165.99916 c 16.94506,0.0794 17.03689,25.91122 0,26 z"
     fill="#cccccc"
     id="path52" />
  <path
     d="m 427.5091,52 a 26,26 0 1 1 26,-26 26.02947,26.02947 0 0 1 -26,26 z"
     fill="#000000"
     id="path54" />
  <path
     d="m 439.5091,25 h -11 V 12.5 a 1,1 0 0 0 -2,0 V 25 h -11 a 1,1 0 0 0 0,2 h 11 v 12.5 a 1,1 0 1 0 2,0 V 27 h 11 a 1,1 0 0 0 0,-2 z"
     fill="#ffffff"
     id="path56" />
  <path
     d="m 362.5091,202.29981 h -160 a 16.51867,16.51867 0 0 1 -16.5,-16.5 V 96.2002 a 16.51866,16.51866 0 0 1 16.5,-16.5 h 160 a 16.51867,16.51867 0 0 1 16.5,16.5 v 89.59961 a 16.51868,16.51868 0 0 1 -16.5,16.5 z"
     fill="#000000"
     id="path58" />
</svg>
