<?xml version="1.0" encoding="UTF-8" standalone="no"?>
<svg
   data-name="Layer 1"
   width="580.10107"
   height="822.68958"
   viewBox="0 0 580.10106 822.68959"
   version="1.1"
   id="svg70"
   sodipodi:docname="undraw_news_re_6uub_tall.svg"
   inkscape:version="1.1 (c68e22c387, 2021-05-23)"
   xmlns:inkscape="http://www.inkscape.org/namespaces/inkscape"
   xmlns:sodipodi="http://sodipodi.sourceforge.net/DTD/sodipodi-0.dtd"
   xmlns="http://www.w3.org/2000/svg"
   xmlns:svg="http://www.w3.org/2000/svg">
  <defs
     id="defs74" />
  <sodipodi:namedview
     id="namedview72"
     pagecolor="#ffffff"
     bordercolor="#999999"
     borderopacity="1"
     inkscape:pageshadow="0"
     inkscape:pageopacity="0"
     inkscape:pagecheckerboard="0"
     showgrid="false"
     fit-margin-top="0"
     fit-margin-left="0"
     fit-margin-right="0"
     fit-margin-bottom="0"
     inkscape:zoom="0.54489762"
     inkscape:cx="325.74927"
     inkscape:cy="502.84675"
     inkscape:window-width="1500"
     inkscape:window-height="930"
     inkscape:window-x="-6"
     inkscape:window-y="-6"
     inkscape:window-maximized="1"
     inkscape:current-layer="svg70" />
  <circle
     cx="452.81955"
     cy="484.65732"
     r="53.519161"
     fill="#000000"
     id="circle2" />
  <path
     d="M 456.75237,815.50315 V 692.4885 a 6.50752,6.50752 0 0 1 6.5,-6.5 h 14.75927 a 6.50752,6.50752 0 0 1 6.5,6.5 v 123.01465 a 6.50753,6.50753 0 0 1 -6.5,6.5 h -14.75927 a 6.50753,6.50753 0 0 1 -6.5,-6.5 z"
     fill="#2f2e41"
     id="path4" />
  <path
     d="M 425.55998,815.50315 V 692.4885 a 6.50753,6.50753 0 0 1 6.5,-6.5 h 14.75977 a 6.50753,6.50753 0 0 1 6.5,6.5 v 123.01465 a 6.50753,6.50753 0 0 1 -6.5,6.5 h -14.75977 a 6.50753,6.50753 0 0 1 -6.5,-6.5 z"
     fill="#2f2e41"
     id="path6" />
  <path
     d="m 413.39641,699.95044 v -108.9444 a 40.03121,40.03121 0 0 1 40.03121,-40.03121 h 8e-5 a 40.03121,40.03121 0 0 1 40.03121,40.03121 v 108.9444 a 6.5,6.5 0 0 1 -6.5,6.5 h -67.0625 a 6.5,6.5 0 0 1 -6.5,-6.5 z"
     fill="#2f2e41"
     id="path8" />
  <path
     d="m 407.62395,508.31565 0.0557,-2 c -3.7207,-0.10352 -7.001,-0.33692 -9.46582,-2.1377 a 6.14794,6.14794 0 0 1 -2.38134,-4.52832 3.51432,3.51432 0 0 1 1.15283,-2.89453 c 1.63623,-1.38184 4.269,-0.93457 6.188,-0.0547 l 1.65478,0.75879 -3.17334,-23.19043 -1.98144,0.27149 2.69921,19.72656 c -2.60742,-0.7666 -5.02343,-0.43652 -6.67822,0.96094 a 5.471,5.471 0 0 0 -1.86035,4.49218 8.13266,8.13266 0 0 0 3.2002,6.07325 c 3.16698,2.31445 7.2827,2.42968 10.58983,2.52246 z"
     fill="#2f2e41"
     id="path10" />
  <rect
     x="413.10248"
     y="476.24142"
     width="10.77148"
     height="2"
     fill="#2f2e41"
     id="rect12" />
  <path
     d="m 473.99158,699.87497 a 6.454,6.454 0 0 1 -2.09233,-4.51374 l -5.09556,-122.90769 a 6.49951,6.49951 0 0 1 6.22489,-6.7636 l 14.74722,-0.61181 a 6.50621,6.50621 0 0 1 6.763,6.22529 l 5.09587,122.90874 a 6.50779,6.50779 0 0 1 -6.22537,6.76352 l -14.74657,0.61092 a 6.56066,6.56066 0 0 1 -1.40471,-0.0914 6.45254,6.45254 0 0 1 -3.26644,-1.6202 z"
     fill="#000000"
     id="path14" />
  <path
     d="m 492.80974,616.68959 h -24 a 6.50737,6.50737 0 0 1 -6.5,-6.5 v -34 a 18.5,18.5 0 0 1 37,0 v 34 a 6.50737,6.50737 0 0 1 -6.5,6.5 z"
     fill="#2f2e41"
     id="path16" />
  <path
     d="m 338.6887,662.23796 -9.40872,-11.37152 a 6.50781,6.50781 0 0 1 0.86443,-9.15168 L 424.9253,563.2985 a 6.50409,6.50409 0 0 1 9.15129,0.86413 l 9.40851,11.37255 a 6.49953,6.49953 0 0 1 -0.86482,9.15138 l -94.7799,78.41588 a 6.50668,6.50668 0 0 1 -8.1442,0.1187 6.561,6.561 0 0 1 -1.00748,-0.98318 z"
     fill="#000000"
     id="path18" />
  <path
     d="m 408.5851,611.16208 -15.20318,-18.5705 a 6.50737,6.50737 0 0 1 0.912,-9.147 l 26.3082,-21.53783 a 18.5,18.5 0 1 1 23.43824,28.62951 l -26.30821,21.53784 a 6.50736,6.50736 0 0 1 -9.14705,-0.91202 z"
     fill="#2f2e41"
     id="path20" />
  <path
     d="m 466.2371,493.7188 c 2.78683,-4.65587 4.96791,-9.7857 3.93265,-15.30212 -0.92443,-4.9259 -4.46936,-8.76216 -9.56673,-9.26567 -3.06967,-0.30322 -6.12471,0.51626 -9.12294,1.04994 a 34.24565,34.24565 0 0 1 -7.4479,0.48247 36.994,36.994 0 0 1 -14.45115,-3.66415 35.46926,35.46926 0 0 1 -19.05641,-22.33138 c -3.04174,-11.0738 -0.78337,-23.64867 6.44032,-32.66261 l -2.50708,-0.6619 3.26431,10.72432 a 1.51518,1.51518 0 0 0 2.2035,0.89644 51.66423,51.66423 0 0 1 40.20064,-6.42726 48.947,48.947 0 0 1 11.031,4.24282 c 1.70394,0.90591 3.22136,-1.68277 1.51416,-2.59041 a 54.69734,54.69734 0 0 0 -42.91465,-3.28751 52.21418,52.21418 0 0 0 -11.34528,5.47195 l 2.2035,0.89645 -3.26431,-10.72432 a 1.512,1.512 0 0 0 -2.50708,-0.6619 40.20718,40.20718 0 0 0 -8.24121,30.48283 37.94018,37.94018 0 0 0 16.42865,26.31876 40.45781,40.45781 0 0 0 30.55369,6.14207 c 2.9359,-0.56438 6.26536,-1.3723 9.146,-0.14293 a 7.90016,7.90016 0 0 1 4.234,5.20761 c 1.63237,5.53132 -1.14517,10.78409 -3.98245,15.38331 z"
     fill="#2f2e41"
     id="path22" />
  <path
     d="m 439.4262,598.94203 -0.0371,-4.9e-4 a 2.46566,2.46566 0 0 1 -2.39893,-1.92725 l 0.19556,-41.66845 a 2.5351,2.5351 0 0 1 1.40039,-2.853 c 7.25342,-3.40723 14.74853,-3.86523 22.91333,-1.39746 a 2.5016,2.5016 0 0 1 1.70654,3.04248 l -21.3655,42.94382 a 2.46505,2.46505 0 0 1 -2.41429,1.86035 z"
     fill="#cccccc"
     id="path24" />
  <path
     d="m 579.10108,822.68959 h -248 a 1,1 0 0 1 0,-2 h 248 a 1,1 0 0 1 0,2 z"
     fill="#3f3d56"
     id="path26" />
  <path
     d="m 335.9999,678.48334 h -186 a 9.51081,9.51081 0 0 1 -9.5,-9.5 v -138 a 9.51081,9.51081 0 0 1 9.5,-9.5 h 186 a 9.51081,9.51081 0 0 1 9.5,9.5 v 138 a 9.51081,9.51081 0 0 1 -9.5,9.5 z"
     fill="#ffffff"
     id="path28" />
  <path
     d="m 174.07705,611.893 35.97119,0.59034 h 20.95166 a 3.50409,3.50409 0 0 0 3.5,-3.5 v -1.22315 l -18.0415,-19.39941 a 3.50037,3.50037 0 0 0 -5.03785,-0.0913 l -17.74389,17.74414 a 2.50234,2.50234 0 0 1 -3.53418,0.001 l -2.62622,-2.62208 a 3.50286,3.50286 0 0 0 -4.949,0.002 z"
     fill="#000000"
     id="path30" />
  <path
     d="m 335.9999,678.48334 h -186 a 9.51081,9.51081 0 0 1 -9.5,-9.5 v -138 a 9.51081,9.51081 0 0 1 9.5,-9.5 h 186 a 9.51081,9.51081 0 0 1 9.5,9.5 v 138 a 9.51081,9.51081 0 0 1 -9.5,9.5 z m -186,-154 a 6.50744,6.50744 0 0 0 -6.5,6.5 v 138 a 6.50745,6.50745 0 0 0 6.5,6.5 h 186 a 6.50737,6.50737 0 0 0 6.5,-6.5 v -138 a 6.50736,6.50736 0 0 0 -6.5,-6.5 z"
     fill="#3f3d56"
     id="path32" />
  <path
     d="m 314.9999,545.98334 h -144 a 3,3 0 0 1 0,-6 h 144 a 3,3 0 0 1 0,6 z"
     fill="#3f3d56"
     id="path34" />
  <path
     d="m 315.4999,562.48334 h -144 a 3,3 0 0 1 0,-6 h 144 a 3,3 0 0 1 0,6 z"
     fill="#3f3d56"
     id="path36" />
  <path
     d="m 315.9999,578.98334 h -69 a 3,3 0 0 1 0,-6 h 69 a 3,3 0 0 1 0,6 z"
     fill="#3f3d56"
     id="path38" />
  <path
     d="m 316.4999,595.48334 h -69 a 3,3 0 0 1 0,-6 h 69 a 3,3 0 0 1 0,6 z"
     fill="#3f3d56"
     id="path40" />
  <path
     d="m 316.9999,611.98334 h -69 a 3,3 0 0 1 0,-6 h 69 a 3,3 0 0 1 0,6 z"
     fill="#3f3d56"
     id="path42" />
  <path
     d="m 317.4999,628.48334 h -144 a 3,3 0 0 1 0,-6 h 144 a 3,3 0 0 1 0,6 z"
     fill="#3f3d56"
     id="path44" />
  <path
     d="m 317.9999,644.98334 h -144 a 3,3 0 0 1 0,-6 h 144 a 3,3 0 0 1 0,6 z"
     fill="#3f3d56"
     id="path46" />
  <path
     d="m 318.4999,661.48334 h -144 a 3,3 0 1 1 0,-6 h 144 a 3,3 0 0 1 0,6 z"
     fill="#3f3d56"
     id="path48" />
  <path
     d="m 230.9999,612.98334 h -56 a 4.91607,4.91607 0 0 1 -2.38415,-0.60987 h -0.0138 l -0.25415,-0.15332 a 4.98014,4.98014 0 0 1 -2.3479,-4.23681 v -30 a 5.0058,5.0058 0 0 1 5,-5 h 56 a 5.0058,5.0058 0 0 1 5,5 v 30 a 5.00581,5.00581 0 0 1 -5,5 z m -57.71448,-2.54053 0.14356,0.0884 a 2.90595,2.90595 0 0 0 1.57092,0.45215 h 56 a 3.00336,3.00336 0 0 0 3,-3 v -30 a 3.00335,3.00335 0 0 0 -3,-3 h -56 a 3.00336,3.00336 0 0 0 -3,3 v 30 a 2.98735,2.98735 0 0 0 1.28552,2.45947 z"
     fill="#3f3d56"
     id="path50" />
  <path
     d="m 2.1434908,700.56453 a 2.72169,2.72169 0 0 0 -1.14857996,4.76333 l 12.02700016,9.87275 a 1.76913,1.76913 0 0 1 0.42864,0.52922 1.66265,1.66265 0 0 1 0.16693,0.65507 l 0.85539,18.2321 a 2.66045,2.66045 0 0 0 2.10809,2.52686 l 0.0213,0.005 a 2.65675,2.65675 0 0 0 2.97482,-1.36325 l 4.27014,-7.89832 a 1.637,1.637 0 0 1 1.457,-0.84713 1.58244,1.58244 0 0 1 1.16291,0.50788 l 20.84741,21.98184 a 2.70136,2.70136 0 0 0 2.38105,0.81642 2.72859,2.72859 0 0 0 2.02671,-1.484 l 30.01461,-60.95252 a 2.71985,2.71985 0 0 0 -3.01526,-3.86364 l -0.98243,0.21143 -75.5957602,16.30722 z m -0.46176,3.924 a 1.63482,1.63482 0 0 1 0.69408,-2.85914 l 75.5721602,-16.30137 1.00577,-0.21734 a 1.63542,1.63542 0 0 1 1.80965,2.31612 l -30.01459,60.95254 a 1.63144,1.63144 0 0 1 -2.64486,0.40048 L 27.256751,726.7981 a 2.6071,2.6071 0 0 0 -0.70984,-0.54127 l 52.41163,-38.49987 a 1.08883,1.08883 0 0 0 -0.90759,-1.93827 0.94891,0.94891 0 0 0 -0.1751,0.0615 l -63.74376,28.90892 a 2.68239,2.68239 0 0 0 -0.42336,-0.42772 L 1.6817308,704.48863 Z"
     fill="#e6e6e6"
     id="path52" />
  <path
     d="m 2.1434908,700.56453 a 2.72169,2.72169 0 0 0 -1.14857996,4.76333 l 12.02700016,9.87275 a 1.76913,1.76913 0 0 1 0.42864,0.52922 1.66265,1.66265 0 0 1 0.16693,0.65507 l 0.85539,18.2321 a 2.66045,2.66045 0 0 0 2.10809,2.52686 l 0.0213,0.005 a 2.65675,2.65675 0 0 0 2.97482,-1.36325 l 4.27014,-7.89832 a 1.637,1.637 0 0 1 1.457,-0.84713 1.58244,1.58244 0 0 1 1.16291,0.50788 l 20.84741,21.98184 a 2.70136,2.70136 0 0 0 2.38105,0.81642 2.72859,2.72859 0 0 0 2.02671,-1.484 l 30.01461,-60.95252 a 2.71985,2.71985 0 0 0 -3.01526,-3.86364 l -0.98243,0.21143 -75.5957602,16.30722 z m -0.46176,3.924 a 1.63482,1.63482 0 0 1 0.69408,-2.85914 l 75.5721602,-16.30137 1.00577,-0.21734 a 1.63542,1.63542 0 0 1 1.80965,2.31612 l -30.0146,60.95252 a 1.63145,1.63145 0 0 1 -2.64486,0.40048 l -20.8472,-21.98172 a 2.607,2.607 0 0 0 -0.70984,-0.54127 2.64569,2.64569 0 0 0 -1.23539,-0.30679 c -0.0607,-0.002 -0.12254,7.4e-4 -0.18464,0.004 l -0.005,-10e-4 a 2.71289,2.71289 0 0 0 -2.22918,1.4169 l -4.27133,7.90362 a 1.58273,1.58273 0 0 1 -1.78924,0.81255 l -0.0106,-0.002 a 1.57923,1.57923 0 0 1 -1.26292,-1.51569 l -0.85515,-18.23205 a 2.57268,2.57268 0 0 0 -0.0856,-0.57026 l 10e-4,-0.005 a 2.60723,2.60723 0 0 0 -0.19723,-0.517 2.52685,2.52685 0 0 0 -0.28948,-0.45391 2.68239,2.68239 0 0 0 -0.42336,-0.42772 L 1.6817708,704.4897 Z"
     fill="#cccccc"
     id="path54" />
  <path
     d="m 14.132071,714.78903 63.74374,-28.90892 a 0.94853,0.94853 0 0 1 0.17511,-0.0615 1.08883,1.08883 0 0 1 0.90758,1.93827 l -52.41162,38.49985 -0.92476,0.68075 -0.64128,-0.87693 0.14083,-0.10806 0.005,10e-4 53.18519,-39.07482 -63.69327,28.88106 -0.001,0.005 -0.2775,0.12241 -0.44921,-0.99045 z"
     fill="#cccccc"
     id="path56" />
  <path
     d="m 310.92369,199.24322 a 3.266028,3.266028 0 0 0 -3.25016,4.89989 l 9.51,16.06899 a 2.122956,2.122956 0 0 1 0.26614,0.77268 1.99518,1.99518 0 0 1 -0.0806,0.80718 l -6.51832,20.91016 a 3.19254,3.19254 0 0 0 1.34006,3.71458 l 0.0218,0.0148 a 3.1881,3.1881 0 0 0 3.914,-0.3163 l 8.0568,-7.15382 a 1.9644,1.9644 0 0 1 1.99065,-0.35727 1.898928,1.898928 0 0 1 1.10288,1.04999 l 14.48632,33.34369 a 3.241632,3.241632 0 0 0 2.34986,1.89786 3.274308,3.274308 0 0 0 2.89446,-0.84159 l 58.86179,-56.41324 a 3.26382,3.26382 0 0 0 -1.81438,-5.5943 l -1.19457,-0.16482 -91.93702,-12.6378 z m -2.1312,4.23532 a 1.961784,1.961784 0 0 1 1.95612,-2.93919 l 91.908,12.63471 1.22334,0.1677 a 1.962504,1.962504 0 0 1 1.09003,3.35445 l -58.86179,56.41326 a 1.957728,1.957728 0 0 1 -3.14678,-0.63393 L 328.4753,239.13207 a 3.12852,3.12852 0 0 0 -0.57828,-0.90168 l 74.90226,-21.90266 a 1.306596,1.306596 0 0 0 -0.22793,-2.55815 1.138692,1.138692 0 0 0 -0.2227,-0.002 l -83.74436,6.43661 a 3.218868,3.218868 0 0 0 -0.30185,-0.65607 l -9.51,-16.069 z"
     fill="#e6e6e6"
     id="path52-0"
     style="stroke-width:1.2" />
  <path
     d="m 310.92369,199.24322 a 3.266028,3.266028 0 0 0 -3.25016,4.89989 l 9.51,16.06899 a 2.122956,2.122956 0 0 1 0.26614,0.77268 1.99518,1.99518 0 0 1 -0.0806,0.80718 l -6.51832,20.91016 a 3.19254,3.19254 0 0 0 1.34006,3.71458 l 0.0218,0.0148 a 3.1881,3.1881 0 0 0 3.914,-0.3163 l 8.0568,-7.15382 a 1.9644,1.9644 0 0 1 1.99065,-0.35727 1.898928,1.898928 0 0 1 1.10288,1.04999 l 14.48632,33.34369 a 3.241632,3.241632 0 0 0 2.34986,1.89786 3.274308,3.274308 0 0 0 2.89446,-0.84159 l 58.86179,-56.41324 a 3.26382,3.26382 0 0 0 -1.81438,-5.5943 l -1.19457,-0.16482 -91.93702,-12.6378 z m -2.1312,4.23532 a 1.961784,1.961784 0 0 1 1.95612,-2.93919 l 91.908,12.63471 1.22334,0.1677 a 1.962504,1.962504 0 0 1 1.09003,3.35445 l -58.86179,56.41325 a 1.95774,1.95774 0 0 1 -3.14679,-0.63395 l -14.48611,-33.34347 a 3.1284,3.1284 0 0 0 -0.5783,-0.90168 3.174828,3.174828 0 0 0 -1.26715,-0.85299 c -0.0676,-0.0271 -0.13847,-0.0496 -0.20985,-0.0713 l -0.006,-0.004 a 3.255468,3.255468 0 0 0 -3.09522,0.68284 l -8.06033,7.15931 a 1.899276,1.899276 0 0 1 -2.35109,0.1819 l -0.0108,-0.007 a 1.895076,1.895076 0 0 1 -0.80203,-2.22746 l 6.51859,-20.91 a 3.087216,3.087216 0 0 0 0.13748,-0.67818 l 0.004,-0.006 a 3.128676,3.128676 0 0 0 -0.0108,-0.66392 3.03222,3.03222 0 0 0 -0.14013,-0.63065 3.218868,3.218868 0 0 0 -0.30185,-0.65608 l -9.51,-16.06901 z"
     fill="#cccccc"
     id="path54-3"
     style="stroke-width:1.2" />
  <path
     d="m 318.6043,220.20363 83.74435,-6.43664 a 1.138236,1.138236 0 0 1 0.22271,0.002 1.306596,1.306596 0 0 1 0.22789,2.55816 l -74.90223,21.90261 -1.32219,0.38811 -0.36321,-1.25205 0.20317,-0.0641 0.006,0.004 76.01053,-22.23348 -83.676,6.42592 -0.004,0.006 -0.36317,0.0242 -0.10008,-1.30123 z"
     fill="#cccccc"
     id="path56-3"
     style="stroke-width:1.2" />
  <path
     d="m 495.92413,49.935798 a 2.0902579,2.0902579 0 0 0 -3.02721,2.23538 l 2.20196,11.74562 a 1.3586918,1.3586918 0 0 1 -0.009,0.52294 1.2769152,1.2769152 0 0 1 -0.22516,0.4678 l -8.49723,11.14862 a 2.0432256,2.0432256 0 0 0 -0.007,2.5273 l 0.01,0.0137 a 2.040384,2.040384 0 0 0 2.42313,0.66652 l 6.41131,-2.53875 a 1.257216,1.257216 0 0 1 1.27539,0.22088 1.2153139,1.2153139 0 0 1 0.43344,0.87287 l 1.41342,23.223962 a 2.0746445,2.0746445 0 0 0 0.99778,1.65575 2.0955571,2.0955571 0 0 0 1.92496,0.12744 l 47.74813,-21.042682 a 2.0888448,2.0888448 0 0 0 0.13338,-3.76159 l -0.68234,-0.36061 -52.5249,-27.72477 z m -2.2088,2.08064 a 1.2555418,1.2555418 0 0 1 1.81979,-1.33946 l 52.50812,27.71657 0.69901,0.36863 a 1.2560026,1.2560026 0 0 1 -0.0787,2.25598 l -47.74813,21.042692 a 1.2529459,1.2529459 0 0 1 -1.75372,-1.07005 l -1.41336,-23.223782 a 2.0022528,2.0022528 0 0 0 -0.1504,-0.66886 l 49.8408,3.22324 a 0.83622144,0.83622144 0 0 0 0.42288,-1.58837 0.72876288,0.72876288 0 0 0 -0.13349,-0.0499 l -51.77306,-14.46005 a 2.0600755,2.0600755 0 0 0 -0.0379,-0.46064 l -2.20196,-11.74562 z"
     fill="#e6e6e6"
     id="path52-0-4"
     style="stroke-width:0.768" />
  <path
     d="m 495.92413,49.935798 a 2.0902579,2.0902579 0 0 0 -3.02721,2.23538 l 2.20196,11.74562 a 1.3586918,1.3586918 0 0 1 -0.009,0.52294 1.2769152,1.2769152 0 0 1 -0.22516,0.4678 l -8.49723,11.14862 a 2.0432256,2.0432256 0 0 0 -0.007,2.5273 l 0.01,0.0137 a 2.040384,2.040384 0 0 0 2.42313,0.66652 l 6.41131,-2.53875 a 1.257216,1.257216 0 0 1 1.27539,0.22088 1.2153139,1.2153139 0 0 1 0.43344,0.87287 l 1.41342,23.223962 a 2.0746445,2.0746445 0 0 0 0.99778,1.65575 2.0955571,2.0955571 0 0 0 1.92496,0.12744 l 47.74813,-21.042682 a 2.0888448,2.0888448 0 0 0 0.13338,-3.76159 l -0.68234,-0.36061 -52.5249,-27.72477 z m -2.2088,2.08064 a 1.2555418,1.2555418 0 0 1 1.81979,-1.33946 l 52.50812,27.71657 0.69901,0.36863 a 1.2560026,1.2560026 0 0 1 -0.0787,2.25598 l -47.74813,21.042682 a 1.2529536,1.2529536 0 0 1 -1.75372,-1.07007 l -1.41335,-23.223772 a 2.002176,2.002176 0 0 0 -0.15042,-0.66887 2.0318899,2.0318899 0 0 0 -0.57535,-0.79036 c -0.0347,-0.0311 -0.0724,-0.0602 -0.1106,-0.0888 l -0.002,-0.004 a 2.0834995,2.0834995 0 0 0 -2.01095,-0.26686 l -6.41463,2.54129 a 1.2155366,1.2155366 0 0 1 -1.45377,-0.40524 l -0.005,-0.006 a 1.2128486,1.2128486 0 0 1 0.005,-1.51516 l 8.49735,-11.14847 a 1.9758182,1.9758182 0 0 0 0.23113,-0.37777 l 0.004,-0.002 a 2.0023526,2.0023526 0 0 0 0.13884,-0.40164 1.9406208,1.9406208 0 0 0 0.0538,-0.40995 2.0600755,2.0600755 0 0 0 -0.0379,-0.46064 l -2.20195,-11.74564 z"
     fill="#cccccc"
     id="path54-3-5"
     style="stroke-width:0.768" />
  <path
     d="m 495.95519,64.222698 51.77305,14.46002 a 0.72847104,0.72847104 0 0 1 0.13351,0.05 0.83622144,0.83622144 0 0 1 -0.42291,1.58837 l -49.84077,-3.22326 -0.88013,-0.056 0.0556,-0.83249 0.13622,0.006 0.002,0.004 50.57973,3.26688 -51.72961,-14.45151 -0.004,0.002 -0.2237,-0.065 0.22464,-0.80447 z"
     fill="#cccccc"
     id="path56-3-4"
     style="stroke-width:0.768" />
  <path
     d="m 381.85636,731.56453 -75.59576,-16.30722 -0.98243,-0.21143 a 2.71985,2.71985 0 0 0 -3.01526,3.86364 l 30.01458,60.95252 a 2.72859,2.72859 0 0 0 2.02672,1.484 2.70135,2.70135 0 0 0 2.381,-0.81642 l 20.84742,-21.98184 a 1.58244,1.58244 0 0 1 1.16291,-0.50788 1.637,1.637 0 0 1 1.457,0.84713 l 4.27014,7.89832 a 2.65675,2.65675 0 0 0 2.97482,1.36325 l 0.0213,-0.005 a 2.66045,2.66045 0 0 0 2.10809,-2.52686 l 0.85539,-18.2321 a 1.66265,1.66265 0 0 1 0.16693,-0.65507 1.76913,1.76913 0 0 1 0.42864,-0.52922 l 12.02705,-9.87275 a 2.72169,2.72169 0 0 0 -1.14858,-4.76333 z m 0.46174,3.924 -12.027,9.87276 a 2.68281,2.68281 0 0 0 -0.42336,0.42772 l -63.74378,-28.90887 a 0.94927,0.94927 0 0 0 -0.17511,-0.0615 1.08883,1.08883 0 0 0 -0.90758,1.93827 l 52.41162,38.49987 a 2.6071,2.6071 0 0 0 -0.70984,0.54127 l -20.84719,21.98172 a 1.63144,1.63144 0 0 1 -2.64486,-0.40048 l -30.01451,-60.95246 a 1.63542,1.63542 0 0 1 1.80965,-2.31612 l 1.00577,0.21734 75.57211,16.30139 a 1.63482,1.63482 0 0 1 0.69408,2.85914 z"
     fill="#e6e6e6"
     id="path58" />
  <path
     d="m 381.85636,731.56453 -75.59576,-16.30722 -0.98243,-0.21143 a 2.71985,2.71985 0 0 0 -3.01526,3.86364 l 30.01458,60.95252 a 2.72859,2.72859 0 0 0 2.02672,1.484 2.70135,2.70135 0 0 0 2.381,-0.81642 l 20.84742,-21.98184 a 1.58244,1.58244 0 0 1 1.16291,-0.50788 1.637,1.637 0 0 1 1.457,0.84713 l 4.27014,7.89832 a 2.65675,2.65675 0 0 0 2.97482,1.36325 l 0.0213,-0.005 a 2.66045,2.66045 0 0 0 2.10809,-2.52686 l 0.85539,-18.2321 a 1.66265,1.66265 0 0 1 0.16693,-0.65507 1.76913,1.76913 0 0 1 0.42864,-0.52922 l 12.02705,-9.87275 a 2.72169,2.72169 0 0 0 -1.14858,-4.76333 z m 0.46174,3.924 -12.027,9.87276 a 2.68281,2.68281 0 0 0 -0.42336,0.42772 2.52685,2.52685 0 0 0 -0.28948,0.45391 2.60723,2.60723 0 0 0 -0.19723,0.517 l 10e-4,0.005 a 2.57268,2.57268 0 0 0 -0.0856,0.57026 l -0.85514,18.23205 a 1.57925,1.57925 0 0 1 -1.26293,1.51569 l -0.0106,0.002 a 1.58273,1.58273 0 0 1 -1.78924,-0.81255 l -4.27133,-7.90362 a 2.71289,2.71289 0 0 0 -2.22913,-1.41689 l -0.005,10e-4 c -0.0621,-0.003 -0.124,-0.006 -0.18464,-0.004 a 2.64572,2.64572 0 0 0 -1.23539,0.30679 2.607,2.607 0 0 0 -0.70984,0.54127 l -20.8472,21.98172 a 1.63145,1.63145 0 0 1 -2.64486,-0.40048 l -30.01464,-60.95133 a 1.63542,1.63542 0 0 1 1.80965,-2.31612 l 1.00577,0.21734 75.57211,16.30139 a 1.63482,1.63482 0 0 1 0.69408,2.85914 z"
     fill="#cccccc"
     id="path60" />
  <path
     d="m 370.10891,745.8972 -0.44921,0.99045 -0.2775,-0.12241 -0.001,-0.005 -63.69327,-28.88106 53.18519,39.07482 0.005,-10e-4 0.14083,0.10806 -0.64128,0.87693 -0.92476,-0.68075 -52.41162,-38.49985 a 1.08883,1.08883 0 0 1 0.90758,-1.93827 0.94853,0.94853 0 0 1 0.17511,0.0615 l 63.74374,28.90892 z"
     fill="#cccccc"
     id="path62" />
  <path
     d="M 245.49308,0.03602835 135.16867,15.201388 l -1.43352,0.19775 a 3.916584,3.916584 0 0 0 -2.17723,6.71317 l 70.6341,67.6959 a 3.9291696,3.9291696 0 0 0 3.47338,1.00989 3.889944,3.889944 0 0 0 2.81976,-2.2774 l 17.38359,-40.01243 a 2.2787136,2.2787136 0 0 1 1.32346,-1.25999 2.35728,2.35728 0 0 1 2.38878,0.42872 l 9.66816,8.58459 a 3.82572,3.82572 0 0 0 4.69681,0.37957 l 0.0264,-0.0173 a 3.831048,3.831048 0 0 0 1.60808,-4.4575 l -7.82199,-25.09218 a 2.394216,2.394216 0 0 1 -0.0967,-0.96862 2.5475472,2.5475472 0 0 1 0.31938,-0.92722 L 249.3932,5.9155184 A 3.9192336,3.9192336 0 0 0 245.493,0.03565835 Z m 2.55742,5.08237005 -11.412,19.2828096 a 3.8632464,3.8632464 0 0 0 -0.36222,0.78729 l -100.49324,-7.72386 a 1.3669488,1.3669488 0 0 0 -0.26725,0.002 1.5679152,1.5679152 0 0 0 -0.27349,3.06978 l 89.88272,26.28318 a 3.754224,3.754224 0 0 0 -0.69395,1.08202 l -17.38333,40.01216 a 2.3492736,2.3492736 0 0 1 -3.77616,0.7607 l -70.63399,-67.69586 a 2.3550048,2.3550048 0 0 1 1.30803,-4.02533 l 1.46801,-0.20125 110.28954,-15.1616096 a 2.3541408,2.3541408 0 0 1 2.34735,3.52702 z"
     fill="#e6e6e6"
     id="path58-1"
     style="stroke-width:1.44" />
  <path
     d="M 245.49308,0.03602835 135.16867,15.201388 l -1.43352,0.19775 a 3.916584,3.916584 0 0 0 -2.17723,6.71317 l 70.6341,67.6959 a 3.9291696,3.9291696 0 0 0 3.47338,1.00989 3.889944,3.889944 0 0 0 2.81976,-2.2774 l 17.38359,-40.01243 a 2.2787136,2.2787136 0 0 1 1.32346,-1.25999 2.35728,2.35728 0 0 1 2.38878,0.42872 l 9.66816,8.58459 a 3.82572,3.82572 0 0 0 4.69681,0.37957 l 0.0264,-0.0173 a 3.831048,3.831048 0 0 0 1.60808,-4.4575 l -7.82199,-25.09218 a 2.394216,2.394216 0 0 1 -0.0967,-0.96862 2.5475472,2.5475472 0 0 1 0.31938,-0.92722 L 249.3932,5.9155184 A 3.9192336,3.9192336 0 0 0 245.493,0.03565835 Z m 2.55742,5.08237005 -11.412,19.2828096 a 3.8632464,3.8632464 0 0 0 -0.36222,0.78729 3.638664,3.638664 0 0 0 -0.16816,0.75679 3.7544112,3.7544112 0 0 0 -0.013,0.7967 l 0.005,0.006 a 3.7046592,3.7046592 0 0 0 0.16505,0.81382 l 7.82231,25.09199 a 2.27412,2.27412 0 0 1 -0.96246,2.67296 l -0.013,0.008 a 2.2791312,2.2791312 0 0 1 -2.8213,-0.21828 l -9.67239,-8.59117 a 3.9065616,3.9065616 0 0 0 -3.71419,-0.81942 l -0.006,0.005 c -0.0856,0.0265 -0.17075,0.053 -0.25182,0.0856 a 3.8098368,3.8098368 0 0 0 -1.52058,1.02357 3.75408,3.75408 0 0 0 -0.69394,1.08204 l -17.38334,40.01216 a 2.349288,2.349288 0 0 1 -3.77616,0.7607 l -70.63374,-67.69411 a 2.3550048,2.3550048 0 0 1 1.30804,-4.02533 l 1.46801,-0.20125 110.28953,-15.1615996 a 2.3541408,2.3541408 0 0 1 2.34736,3.52701 z"
     fill="#cccccc"
     id="path60-3"
     style="stroke-width:1.44" />
  <path
     d="m 236.6559,25.216108 -0.1201,1.56147 -0.43579,-0.0289 -0.005,-0.006 -100.41121,-7.7111 91.21265,26.68019 0.006,-0.005 0.24378,0.0769 -0.43587,1.50245 -1.58661,-0.4657 -89.8827,-26.28317 a 1.5679152,1.5679152 0 0 1 0.27349,-3.06978 1.3658832,1.3658832 0 0 1 0.26723,-0.002 l 100.49322,7.72397 z"
     fill="#cccccc"
     id="path62-6"
     style="stroke-width:1.44" />
  <path
     d="m 84.755491,368.35697 a 3.75814,3.75814 0 0 0 -6.41362,1.96856 l -3.136,20.7069 a 2.35166,2.35166 0 0 1 -0.32043,0.86063 2.25849,2.25849 0 0 1 -0.653,0.64565 l -20.84635,13.59541 a 3.54494,3.54494 0 0 0 -1.48659,4.1802 l 0.009,0.0278 a 3.642,3.642 0 0 0 3.701,2.49026 l 12.30249,-0.53418 a 2.25523,2.25523 0 0 1 2.02379,1.09558 2.09366,2.09366 0 0 1 0.22233,1.69324 l -11.1636,39.25974 a 3.58139,3.58139 0 0 0 0.71812,3.31236 3.77683,3.77683 0 0 0 3.17464,1.31265 l 92.868399,-7.51371 a 3.76489,3.76489 0 0 0 2.25272,-0.97927 3.61019,3.61019 0 0 0 0.167,-5.17227 l -0.94135,-0.98754 -72.479099,-75.962 z m -4.942,2.18076 a 2.18629,2.18629 0 0 1 0.68372,-1.27674 2.273,2.273 0 0 1 3.16927,0.1005 l 72.455579,75.93883 0.96475,1.01037 a 2.18081,2.18081 0 0 1 0.59183,1.308 2.213,2.213 0 0 1 -2.04087,2.382 l -92.868359,7.51377 a 2.27847,2.27847 0 0 1 -0.77873,-0.073 2.19006,2.19006 0 0 1 -1.557,-2.70229 l 11.16362,-39.2594 a 3.444,3.444 0 0 0 0.13635,-1.19348 L 153.977,448.14617 a 1.51459,1.51459 0 0 0 1.65467,-0.31618 1.44519,1.44519 0 0 0 -0.0142,-2.07158 1.29492,1.29492 0 0 0 -0.19574,-0.15959 L 76.472731,392.02888 a 3.553,3.553 0 0 0 0.20474,-0.78436 l 3.136,-20.70687 z"
     fill="#e6e6e6"
     id="path64" />
  <path
     d="m 84.755491,368.35697 a 3.75814,3.75814 0 0 0 -6.41362,1.96856 l -3.136,20.7069 a 2.35166,2.35166 0 0 1 -0.32043,0.86063 2.25849,2.25849 0 0 1 -0.653,0.64565 l -20.84635,13.59541 a 3.54494,3.54494 0 0 0 -1.48659,4.1802 l 0.009,0.0278 a 3.642,3.642 0 0 0 3.701,2.49026 l 12.30249,-0.53418 a 2.25523,2.25523 0 0 1 2.02379,1.09558 2.09366,2.09366 0 0 1 0.22233,1.69324 l -11.1636,39.25974 a 3.58139,3.58139 0 0 0 0.71812,3.31236 3.77683,3.77683 0 0 0 3.17464,1.31265 l 92.868399,-7.51371 a 3.76489,3.76489 0 0 0 2.25272,-0.97927 3.61019,3.61019 0 0 0 0.167,-5.17227 l -0.94135,-0.98754 -72.479099,-75.962 z m -4.942,2.18076 a 2.18629,2.18629 0 0 1 0.68372,-1.27674 2.273,2.273 0 0 1 3.16927,0.1005 l 72.455579,75.93883 0.96475,1.01037 a 2.18081,2.18081 0 0 1 0.59183,1.308 2.213,2.213 0 0 1 -2.04087,2.382 l -92.868349,7.51374 a 2.27847,2.27847 0 0 1 -0.77873,-0.073 2.19007,2.19007 0 0 1 -1.557,-2.70229 l 11.16363,-39.2594 a 3.44423,3.44423 0 0 0 0.13635,-1.19348 3.51082,3.51082 0 0 0 -0.51,-1.63783 c -0.0401,-0.0716 -0.0873,-0.1409 -0.13448,-0.21054 l -0.002,-0.007 a 3.74454,3.74454 0 0 0 -3.23844,-1.59263 l -12.30955,0.53648 a 2.16924,2.16924 0 0 1 -2.21734,-1.50291 l -0.005,-0.0139 a 2.10447,2.10447 0 0 1 0.8928,-2.5056 l 20.84648,-13.59509 a 3.515,3.515 0 0 0 0.61051,-0.49319 l 0.007,-0.002 a 3.51869,3.51869 0 0 0 0.46914,-0.58511 3.37363,3.37363 0 0 0 0.32992,-0.648 3.553,3.553 0 0 0 0.20474,-0.78436 l 3.136,-20.70687 z"
     fill="#cccccc"
     id="path66" />
</svg>
