<?xml version="1.0" encoding="UTF-8" standalone="no"?>
<svg
   data-name="Layer 1"
   width="8.5in"
   height="16in"
   viewBox="0 0 815.99998 1536"
   version="1.1"
   id="svg70"
   sodipodi:docname="undraw_news_re_6uub_tall_fit.svg"
   inkscape:version="1.1 (c68e22c387, 2021-05-23)"
   inkscape:export-filename="D:\dev\assembler\03-04-mar-apr\day29-20220511-blog-with-api\blog-with-api\assets\undraw_news_re_6uub_tall.png"
   inkscape:export-xdpi="96"
   inkscape:export-ydpi="96"
   xmlns:inkscape="http://www.inkscape.org/namespaces/inkscape"
   xmlns:sodipodi="http://sodipodi.sourceforge.net/DTD/sodipodi-0.dtd"
   xmlns="http://www.w3.org/2000/svg"
   xmlns:svg="http://www.w3.org/2000/svg">
  <defs
     id="defs74" />
  <sodipodi:namedview
     id="namedview72"
     pagecolor="#ffffff"
     bordercolor="#999999"
     borderopacity="1"
     inkscape:pageshadow="0"
     inkscape:pageopacity="0"
     inkscape:pagecheckerboard="0"
     showgrid="false"
     fit-margin-top="0"
     fit-margin-left="0"
     fit-margin-right="0"
     fit-margin-bottom="0"
     inkscape:zoom="0.54489762"
     inkscape:cx="325.74927"
     inkscape:cy="601.94794"
     inkscape:window-width="1500"
     inkscape:window-height="930"
     inkscape:window-x="-6"
     inkscape:window-y="-6"
     inkscape:window-maximized="1"
     inkscape:current-layer="svg70"
     units="in"
     inkscape:document-units="in" />
  <circle
     cx="572.10803"
     cy="1126.9797"
     r="53.519161"
     fill="#000000"
     id="circle2" />
  <path
     d="m 576.04084,1457.8258 v -123.0147 a 6.50752,6.50752 0 0 1 6.5,-6.5 h 14.75927 a 6.50752,6.50752 0 0 1 6.5,6.5 v 123.0147 a 6.50753,6.50753 0 0 1 -6.5,6.5 h -14.75927 a 6.50753,6.50753 0 0 1 -6.5,-6.5 z"
     fill="#2f2e41"
     id="path4" />
  <path
     d="m 544.84845,1457.8258 v -123.0147 a 6.50753,6.50753 0 0 1 6.5,-6.5 h 14.75977 a 6.50753,6.50753 0 0 1 6.5,6.5 v 123.0147 a 6.50753,6.50753 0 0 1 -6.5,6.5 h -14.75977 a 6.50753,6.50753 0 0 1 -6.5,-6.5 z"
     fill="#2f2e41"
     id="path6" />
  <path
     d="m 532.68488,1342.2731 v -108.9444 a 40.03121,40.03121 0 0 1 40.03121,-40.0313 h 8e-5 a 40.03121,40.03121 0 0 1 40.03121,40.0313 v 108.9444 a 6.5,6.5 0 0 1 -6.5,6.5 h -67.0625 a 6.5,6.5 0 0 1 -6.5,-6.5 z"
     fill="#2f2e41"
     id="path8" />
  <path
     d="m 526.91242,1150.6383 0.0557,-2 c -3.7207,-0.1036 -7.001,-0.337 -9.46582,-2.1377 a 6.14794,6.14794 0 0 1 -2.38134,-4.5284 3.51432,3.51432 0 0 1 1.15283,-2.8945 c 1.63623,-1.3818 4.269,-0.9346 6.188,-0.055 l 1.65478,0.7588 -3.17334,-23.1904 -1.98144,0.2715 2.69921,19.7265 c -2.60742,-0.7666 -5.02343,-0.4365 -6.67822,0.961 a 5.471,5.471 0 0 0 -1.86035,4.4921 8.13266,8.13266 0 0 0 3.2002,6.0733 c 3.16698,2.3144 7.2827,2.4297 10.58983,2.5225 z"
     fill="#2f2e41"
     id="path10" />
  <rect
     x="532.39093"
     y="1118.5638"
     width="10.77148"
     height="2"
     fill="#2f2e41"
     id="rect12" />
  <path
     d="m 593.28005,1342.1976 a 6.454,6.454 0 0 1 -2.09233,-4.5138 l -5.09556,-122.9076 a 6.49951,6.49951 0 0 1 6.22489,-6.7636 l 14.74722,-0.6119 a 6.50621,6.50621 0 0 1 6.763,6.2253 l 5.09587,122.9088 a 6.50779,6.50779 0 0 1 -6.22537,6.7635 l -14.74657,0.6109 a 6.56066,6.56066 0 0 1 -1.40471,-0.091 6.45254,6.45254 0 0 1 -3.26644,-1.6202 z"
     fill="#000000"
     id="path14" />
  <path
     d="m 612.09821,1259.0122 h -24 a 6.50737,6.50737 0 0 1 -6.5,-6.5 v -34 a 18.5,18.5 0 0 1 37,0 v 34 a 6.50737,6.50737 0 0 1 -6.5,6.5 z"
     fill="#2f2e41"
     id="path16" />
  <path
     d="m 457.97717,1304.5606 -9.40872,-11.3715 a 6.50781,6.50781 0 0 1 0.86443,-9.1517 l 94.78089,-78.4163 a 6.50409,6.50409 0 0 1 9.15129,0.8641 l 9.40851,11.3726 a 6.49953,6.49953 0 0 1 -0.86482,9.1514 l -94.7799,78.4159 a 6.50668,6.50668 0 0 1 -8.1442,0.1187 6.561,6.561 0 0 1 -1.00748,-0.9832 z"
     fill="#000000"
     id="path18" />
  <path
     d="m 527.87357,1253.4847 -15.20318,-18.5705 a 6.50737,6.50737 0 0 1 0.912,-9.147 l 26.3082,-21.5378 a 18.5,18.5 0 1 1 23.43824,28.6295 l -26.30821,21.5378 a 6.50736,6.50736 0 0 1 -9.14705,-0.912 z"
     fill="#2f2e41"
     id="path20" />
  <path
     d="m 585.52557,1136.0414 c 2.78683,-4.6559 4.96791,-9.7857 3.93265,-15.3021 -0.92443,-4.9259 -4.46936,-8.7622 -9.56673,-9.2657 -3.06967,-0.3032 -6.12471,0.5163 -9.12294,1.05 a 34.24565,34.24565 0 0 1 -7.4479,0.4824 36.994,36.994 0 0 1 -14.45115,-3.6641 35.46926,35.46926 0 0 1 -19.05641,-22.3314 c -3.04174,-11.0738 -0.78337,-23.6487 6.44032,-32.6626 l -2.50708,-0.6619 3.26431,10.7243 a 1.51518,1.51518 0 0 0 2.2035,0.8965 51.66423,51.66423 0 0 1 40.20064,-6.4273 48.947,48.947 0 0 1 11.031,4.2428 c 1.70394,0.9059 3.22136,-1.6828 1.51416,-2.5904 a 54.69734,54.69734 0 0 0 -42.91465,-3.2875 52.21418,52.21418 0 0 0 -11.34528,5.4719 l 2.2035,0.8965 -3.26431,-10.7243 a 1.512,1.512 0 0 0 -2.50708,-0.6619 40.20718,40.20718 0 0 0 -8.24121,30.4828 37.94018,37.94018 0 0 0 16.42865,26.3188 40.45781,40.45781 0 0 0 30.55369,6.142 c 2.9359,-0.5643 6.26536,-1.3723 9.146,-0.1429 a 7.90016,7.90016 0 0 1 4.234,5.2076 c 1.63237,5.5313 -1.14517,10.7841 -3.98245,15.3833 z"
     fill="#2f2e41"
     id="path22" />
  <path
     d="m 558.71467,1241.2646 -0.0371,-4e-4 a 2.46566,2.46566 0 0 1 -2.39893,-1.9273 l 0.19556,-41.6684 a 2.5351,2.5351 0 0 1 1.40039,-2.853 c 7.25342,-3.4073 14.74853,-3.8653 22.91333,-1.3975 a 2.5016,2.5016 0 0 1 1.70654,3.0425 l -21.3655,42.9438 a 2.46505,2.46505 0 0 1 -2.41429,1.8603 z"
     fill="#cccccc"
     id="path24" />
  <path
     d="m 698.38955,1465.0122 h -248 a 1,1 0 0 1 0,-2 h 248 a 1,1 0 0 1 0,2 z"
     fill="#3f3d56"
     id="path26" />
  <path
     d="m 455.28837,1320.806 h -186 a 9.51081,9.51081 0 0 1 -9.5,-9.5 v -138 a 9.51081,9.51081 0 0 1 9.5,-9.5 h 186 a 9.51081,9.51081 0 0 1 9.5,9.5 v 138 a 9.51081,9.51081 0 0 1 -9.5,9.5 z"
     fill="#ffffff"
     id="path28" />
  <path
     d="m 293.36552,1254.2156 35.97119,0.5904 h 20.95166 a 3.50409,3.50409 0 0 0 3.5,-3.5 v -1.2232 l -18.0415,-19.3994 a 3.50037,3.50037 0 0 0 -5.03785,-0.091 l -17.74389,17.7441 a 2.50234,2.50234 0 0 1 -3.53418,0 l -2.62622,-2.622 a 3.50286,3.50286 0 0 0 -4.949,0 z"
     fill="#000000"
     id="path30" />
  <path
     d="m 455.28837,1320.806 h -186 a 9.51081,9.51081 0 0 1 -9.5,-9.5 v -138 a 9.51081,9.51081 0 0 1 9.5,-9.5 h 186 a 9.51081,9.51081 0 0 1 9.5,9.5 v 138 a 9.51081,9.51081 0 0 1 -9.5,9.5 z m -186,-154 a 6.50744,6.50744 0 0 0 -6.5,6.5 v 138 a 6.50745,6.50745 0 0 0 6.5,6.5 h 186 a 6.50737,6.50737 0 0 0 6.5,-6.5 v -138 a 6.50736,6.50736 0 0 0 -6.5,-6.5 z"
     fill="#3f3d56"
     id="path32" />
  <path
     d="m 434.28837,1188.306 h -144 a 3,3 0 0 1 0,-6 h 144 a 3,3 0 0 1 0,6 z"
     fill="#3f3d56"
     id="path34" />
  <path
     d="m 434.78837,1204.806 h -144 a 3,3 0 0 1 0,-6 h 144 a 3,3 0 0 1 0,6 z"
     fill="#3f3d56"
     id="path36" />
  <path
     d="m 435.28837,1221.306 h -69 a 3,3 0 0 1 0,-6 h 69 a 3,3 0 0 1 0,6 z"
     fill="#3f3d56"
     id="path38" />
  <path
     d="m 435.78837,1237.806 h -69 a 3,3 0 0 1 0,-6 h 69 a 3,3 0 0 1 0,6 z"
     fill="#3f3d56"
     id="path40" />
  <path
     d="m 436.28837,1254.306 h -69 a 3,3 0 0 1 0,-6 h 69 a 3,3 0 0 1 0,6 z"
     fill="#3f3d56"
     id="path42" />
  <path
     d="m 436.78837,1270.806 h -144 a 3,3 0 0 1 0,-6 h 144 a 3,3 0 0 1 0,6 z"
     fill="#3f3d56"
     id="path44" />
  <path
     d="m 437.28837,1287.306 h -144 a 3,3 0 0 1 0,-6 h 144 a 3,3 0 0 1 0,6 z"
     fill="#3f3d56"
     id="path46" />
  <path
     d="m 437.78837,1303.806 h -144 a 3,3 0 1 1 0,-6 h 144 a 3,3 0 0 1 0,6 z"
     fill="#3f3d56"
     id="path48" />
  <path
     d="m 350.28837,1255.306 h -56 a 4.91607,4.91607 0 0 1 -2.38415,-0.6099 h -0.0138 l -0.25415,-0.1533 a 4.98014,4.98014 0 0 1 -2.3479,-4.2368 v -30 a 5.0058,5.0058 0 0 1 5,-5 h 56 a 5.0058,5.0058 0 0 1 5,5 v 30 a 5.00581,5.00581 0 0 1 -5,5 z m -57.71448,-2.5406 0.14356,0.088 a 2.90595,2.90595 0 0 0 1.57092,0.4522 h 56 a 3.00336,3.00336 0 0 0 3,-3 v -30 a 3.00335,3.00335 0 0 0 -3,-3 h -56 a 3.00336,3.00336 0 0 0 -3,3 v 30 a 2.98735,2.98735 0 0 0 1.28552,2.4594 z"
     fill="#3f3d56"
     id="path50" />
  <path
     d="m 121.43196,1342.8871 a 2.72169,2.72169 0 0 0 -1.14858,4.7634 l 12.027,9.8727 a 1.76913,1.76913 0 0 1 0.42864,0.5292 1.66265,1.66265 0 0 1 0.16693,0.6551 l 0.85539,18.2321 a 2.66045,2.66045 0 0 0 2.10809,2.5269 l 0.0213,0.01 a 2.65675,2.65675 0 0 0 2.97482,-1.3633 l 4.27014,-7.8983 a 1.637,1.637 0 0 1 1.457,-0.8471 1.58244,1.58244 0 0 1 1.16291,0.5079 l 20.84741,21.9818 a 2.70136,2.70136 0 0 0 2.38105,0.8164 2.72859,2.72859 0 0 0 2.02671,-1.484 l 30.01461,-60.9525 a 2.71985,2.71985 0 0 0 -3.01526,-3.8636 l -0.98243,0.2114 -75.59576,16.3072 z m -0.46176,3.924 a 1.63482,1.63482 0 0 1 0.69408,-2.8591 l 75.57216,-16.3014 1.00577,-0.2173 a 1.63542,1.63542 0 0 1 1.80965,2.3161 l -30.01459,60.9526 a 1.63144,1.63144 0 0 1 -2.64486,0.4004 l -20.84719,-21.9817 a 2.6071,2.6071 0 0 0 -0.70984,-0.5413 l 52.41163,-38.4998 a 1.08883,1.08883 0 0 0 -0.90759,-1.9383 0.94891,0.94891 0 0 0 -0.1751,0.062 l -63.74376,28.9089 a 2.68239,2.68239 0 0 0 -0.42336,-0.4277 l -12.027,-9.8728 z"
     fill="#e6e6e6"
     id="path52" />
  <path
     d="m 121.43196,1342.8871 a 2.72169,2.72169 0 0 0 -1.14858,4.7634 l 12.027,9.8727 a 1.76913,1.76913 0 0 1 0.42864,0.5292 1.66265,1.66265 0 0 1 0.16693,0.6551 l 0.85539,18.2321 a 2.66045,2.66045 0 0 0 2.10809,2.5269 l 0.0213,0.01 a 2.65675,2.65675 0 0 0 2.97482,-1.3633 l 4.27014,-7.8983 a 1.637,1.637 0 0 1 1.457,-0.8471 1.58244,1.58244 0 0 1 1.16291,0.5079 l 20.84741,21.9818 a 2.70136,2.70136 0 0 0 2.38105,0.8164 2.72859,2.72859 0 0 0 2.02671,-1.484 l 30.01461,-60.9525 a 2.71985,2.71985 0 0 0 -3.01526,-3.8636 l -0.98243,0.2114 -75.59576,16.3072 z m -0.46176,3.924 a 1.63482,1.63482 0 0 1 0.69408,-2.8591 l 75.57216,-16.3014 1.00577,-0.2173 a 1.63542,1.63542 0 0 1 1.80965,2.3161 l -30.0146,60.9525 a 1.63145,1.63145 0 0 1 -2.64486,0.4005 l -20.8472,-21.9817 a 2.607,2.607 0 0 0 -0.70984,-0.5413 2.64569,2.64569 0 0 0 -1.23539,-0.3068 c -0.0607,0 -0.12254,8e-4 -0.18464,0 l -0.005,-10e-4 a 2.71289,2.71289 0 0 0 -2.22918,1.4169 l -4.27133,7.9037 a 1.58273,1.58273 0 0 1 -1.78924,0.8125 h -0.0106 a 1.57923,1.57923 0 0 1 -1.26292,-1.5157 l -0.85515,-18.232 a 2.57268,2.57268 0 0 0 -0.0856,-0.5703 l 0.001,-0.01 a 2.60723,2.60723 0 0 0 -0.19723,-0.517 2.52685,2.52685 0 0 0 -0.28948,-0.4539 2.68239,2.68239 0 0 0 -0.42336,-0.4277 l -12.027,-9.8728 z"
     fill="#cccccc"
     id="path54" />
  <path
     d="m 133.42054,1357.1116 63.74374,-28.9089 a 0.94853,0.94853 0 0 1 0.17511,-0.062 1.08883,1.08883 0 0 1 0.90758,1.9383 l -52.41162,38.4998 -0.92476,0.6808 -0.64128,-0.8769 0.14083,-0.1081 h 0.005 l 53.18519,-39.0748 -63.69327,28.881 h -0.001 l -0.2775,0.1225 -0.44921,-0.9905 z"
     fill="#cccccc"
     id="path56" />
  <path
     d="m 389.8376,781.0039 a 3.266028,3.266028 0 0 0 -3.25016,4.8999 l 9.51,16.069 a 2.122956,2.122956 0 0 1 0.26614,0.7726 1.99518,1.99518 0 0 1 -0.0806,0.8072 l -6.51832,20.9102 a 3.19254,3.19254 0 0 0 1.34006,3.7146 l 0.0218,0.015 a 3.1881,3.1881 0 0 0 3.914,-0.3163 l 8.0568,-7.1539 a 1.9644,1.9644 0 0 1 1.99065,-0.3572 1.898928,1.898928 0 0 1 1.10288,1.05 l 14.48632,33.3437 a 3.241632,3.241632 0 0 0 2.34986,1.8978 3.274308,3.274308 0 0 0 2.89446,-0.8416 l 58.86179,-56.4132 a 3.26382,3.26382 0 0 0 -1.81438,-5.5943 l -1.19457,-0.1648 -91.93702,-12.6378 z m -2.1312,4.2353 a 1.961784,1.961784 0 0 1 1.95612,-2.9392 l 91.908,12.6347 1.22334,0.1677 a 1.962504,1.962504 0 0 1 1.09003,3.3545 l -58.86179,56.4132 a 1.957728,1.957728 0 0 1 -3.14678,-0.6339 l -14.48611,-33.3435 a 3.12852,3.12852 0 0 0 -0.57828,-0.9016 l 74.90226,-21.9027 a 1.306596,1.306596 0 0 0 -0.22793,-2.5582 1.138692,1.138692 0 0 0 -0.2227,0 l -83.74436,6.4367 a 3.218868,3.218868 0 0 0 -0.30185,-0.6561 l -9.51,-16.069 z"
     fill="#bababa"
     id="path52-0"
     style="stroke-width:1.2" />
  <path
     d="m 389.8376,781.0039 a 3.266028,3.266028 0 0 0 -3.25016,4.8999 l 9.51,16.069 a 2.122956,2.122956 0 0 1 0.26614,0.7726 1.99518,1.99518 0 0 1 -0.0806,0.8072 l -6.51832,20.9102 a 3.19254,3.19254 0 0 0 1.34006,3.7146 l 0.0218,0.015 a 3.1881,3.1881 0 0 0 3.914,-0.3163 l 8.0568,-7.1539 a 1.9644,1.9644 0 0 1 1.99065,-0.3572 1.898928,1.898928 0 0 1 1.10288,1.05 l 14.48632,33.3437 a 3.241632,3.241632 0 0 0 2.34986,1.8978 3.274308,3.274308 0 0 0 2.89446,-0.8416 l 58.86179,-56.4132 a 3.26382,3.26382 0 0 0 -1.81438,-5.5943 l -1.19457,-0.1648 -91.93702,-12.6378 z m -2.1312,4.2353 a 1.961784,1.961784 0 0 1 1.95612,-2.9392 l 91.908,12.6347 1.22334,0.1677 a 1.962504,1.962504 0 0 1 1.09003,3.3545 l -58.86179,56.4132 a 1.95774,1.95774 0 0 1 -3.14679,-0.6339 L 407.3892,820.8927 a 3.1284,3.1284 0 0 0 -0.5783,-0.9017 3.174828,3.174828 0 0 0 -1.26715,-0.853 c -0.0676,-0.027 -0.13847,-0.05 -0.20985,-0.071 h -0.006 a 3.255468,3.255468 0 0 0 -3.09522,0.6829 l -8.06033,7.1593 a 1.899276,1.899276 0 0 1 -2.35109,0.1819 l -0.0108,-0.01 a 1.895076,1.895076 0 0 1 -0.80203,-2.2275 l 6.51859,-20.91 a 3.087216,3.087216 0 0 0 0.13748,-0.6782 l 0.004,-0.01 a 3.128676,3.128676 0 0 0 -0.0108,-0.6639 3.03222,3.03222 0 0 0 -0.14013,-0.6306 3.218868,3.218868 0 0 0 -0.30185,-0.6561 l -9.51,-16.069 z"
     fill="#a6a6a6"
     id="path54-3"
     style="stroke-width:1.2" />
  <path
     d="m 397.51821,801.9643 83.74435,-6.4366 a 1.138236,1.138236 0 0 1 0.22271,0 1.306596,1.306596 0 0 1 0.22789,2.5581 l -74.90223,21.9026 -1.32219,0.3881 -0.36321,-1.252 0.20317,-0.064 h 0.006 l 76.01053,-22.2335 -83.676,6.4259 -0.004,0.01 -0.36317,0.024 -0.10008,-1.3012 z"
     fill="#a6a6a6"
     id="path56-3"
     style="stroke-width:1.2" />
  <path
     d="m 574.83804,633.53167 a 2.0902579,2.0902579 0 0 0 -3.02721,2.23538 l 2.20196,11.74562 a 1.3586918,1.3586918 0 0 1 -0.009,0.52294 1.2769152,1.2769152 0 0 1 -0.22516,0.4678 l -8.49723,11.14862 a 2.0432256,2.0432256 0 0 0 -0.007,2.5273 l 0.01,0.0137 a 2.040384,2.040384 0 0 0 2.42313,0.66652 l 6.41131,-2.53875 a 1.257216,1.257216 0 0 1 1.27539,0.22088 1.2153139,1.2153139 0 0 1 0.43344,0.87287 l 1.41342,23.22395 a 2.0746445,2.0746445 0 0 0 0.99778,1.6558 2.0955571,2.0955571 0 0 0 1.92496,0.1274 l 47.74813,-21.04268 a 2.0888448,2.0888448 0 0 0 0.13338,-3.76159 l -0.68234,-0.36061 -52.5249,-27.72477 z m -2.2088,2.08064 a 1.2555418,1.2555418 0 0 1 1.81979,-1.33946 l 52.50812,27.71657 0.69901,0.36863 a 1.2560026,1.2560026 0 0 1 -0.0787,2.25598 l -47.74813,21.04267 a 1.2529459,1.2529459 0 0 1 -1.75372,-1.07 l -1.41336,-23.22381 a 2.0022528,2.0022528 0 0 0 -0.1504,-0.66886 l 49.8408,3.22324 a 0.83622144,0.83622144 0 0 0 0.42288,-1.58837 0.72876288,0.72876288 0 0 0 -0.13349,-0.0499 l -51.77306,-14.46005 a 2.0600755,2.0600755 0 0 0 -0.0379,-0.46064 l -2.20196,-11.74562 z"
     fill="#bababa"
     id="path52-0-4"
     style="stroke-width:0.768" />
  <path
     d="m 574.83804,633.53167 a 2.0902579,2.0902579 0 0 0 -3.02721,2.23538 l 2.20196,11.74562 a 1.3586918,1.3586918 0 0 1 -0.009,0.52294 1.2769152,1.2769152 0 0 1 -0.22516,0.4678 l -8.49723,11.14862 a 2.0432256,2.0432256 0 0 0 -0.007,2.5273 l 0.01,0.0137 a 2.040384,2.040384 0 0 0 2.42313,0.66652 l 6.41131,-2.53875 a 1.257216,1.257216 0 0 1 1.27539,0.22088 1.2153139,1.2153139 0 0 1 0.43344,0.87287 l 1.41342,23.22395 a 2.0746445,2.0746445 0 0 0 0.99778,1.6558 2.0955571,2.0955571 0 0 0 1.92496,0.1274 l 47.74813,-21.04268 a 2.0888448,2.0888448 0 0 0 0.13338,-3.76159 l -0.68234,-0.36061 -52.5249,-27.72477 z m -2.2088,2.08064 a 1.2555418,1.2555418 0 0 1 1.81979,-1.33946 l 52.50812,27.71657 0.69901,0.36863 a 1.2560026,1.2560026 0 0 1 -0.0787,2.25598 l -47.74813,21.04267 a 1.2529536,1.2529536 0 0 1 -1.75372,-1.0701 l -1.41335,-23.22373 a 2.002176,2.002176 0 0 0 -0.15042,-0.66887 2.0318899,2.0318899 0 0 0 -0.57535,-0.79036 c -0.0347,-0.0311 -0.0724,-0.0602 -0.1106,-0.0888 l -0.002,-0.004 a 2.0834995,2.0834995 0 0 0 -2.01095,-0.26686 l -6.41463,2.54129 a 1.2155366,1.2155366 0 0 1 -1.45377,-0.40524 l -0.005,-0.006 a 1.2128486,1.2128486 0 0 1 0.005,-1.51516 l 8.49735,-11.14847 a 1.9758182,1.9758182 0 0 0 0.23113,-0.37777 l 0.004,-0.002 a 2.0023526,2.0023526 0 0 0 0.13884,-0.40164 1.9406208,1.9406208 0 0 0 0.0538,-0.40995 2.0600755,2.0600755 0 0 0 -0.0379,-0.46064 l -2.20195,-11.74564 z"
     fill="#a6a6a6"
     id="path54-3-5"
     style="stroke-width:0.768" />
  <path
     d="m 574.8691,647.81857 51.77305,14.46002 a 0.72847104,0.72847104 0 0 1 0.13351,0.05 0.83622144,0.83622144 0 0 1 -0.42291,1.58837 l -49.84077,-3.22326 -0.88013,-0.056 0.0556,-0.83249 0.13622,0.006 0.002,0.004 50.57973,3.26688 -51.72961,-14.45151 -0.004,0.002 -0.2237,-0.065 0.22464,-0.80447 z"
     fill="#a6a6a6"
     id="path56-3-4"
     style="stroke-width:0.768" />
  <path
     d="m 501.14483,1373.8871 -75.59576,-16.3072 -0.98243,-0.2114 a 2.71985,2.71985 0 0 0 -3.01526,3.8636 l 30.01458,60.9526 a 2.72859,2.72859 0 0 0 2.02672,1.484 2.70135,2.70135 0 0 0 2.381,-0.8165 l 20.84742,-21.9818 a 1.58244,1.58244 0 0 1 1.16291,-0.5079 1.637,1.637 0 0 1 1.457,0.8471 l 4.27014,7.8984 a 2.65675,2.65675 0 0 0 2.97482,1.3632 h 0.0213 a 2.66045,2.66045 0 0 0 2.10809,-2.5268 l 0.85539,-18.2321 a 1.66265,1.66265 0 0 1 0.16693,-0.6551 1.76913,1.76913 0 0 1 0.42864,-0.5292 l 12.02705,-9.8728 a 2.72169,2.72169 0 0 0 -1.14858,-4.7633 z m 0.46174,3.924 -12.027,9.8728 a 2.68281,2.68281 0 0 0 -0.42336,0.4277 l -63.74378,-28.9088 a 0.94927,0.94927 0 0 0 -0.17511,-0.062 1.08883,1.08883 0 0 0 -0.90758,1.9382 l 52.41162,38.4999 a 2.6071,2.6071 0 0 0 -0.70984,0.5413 l -20.84719,21.9817 a 1.63144,1.63144 0 0 1 -2.64486,-0.4005 l -30.01451,-60.9525 a 1.63542,1.63542 0 0 1 1.80965,-2.3161 l 1.00577,0.2174 75.57211,16.3014 a 1.63482,1.63482 0 0 1 0.69408,2.8591 z"
     fill="#e6e6e6"
     id="path58" />
  <path
     d="m 501.14483,1373.8871 -75.59576,-16.3072 -0.98243,-0.2114 a 2.71985,2.71985 0 0 0 -3.01526,3.8636 l 30.01458,60.9526 a 2.72859,2.72859 0 0 0 2.02672,1.484 2.70135,2.70135 0 0 0 2.381,-0.8165 l 20.84742,-21.9818 a 1.58244,1.58244 0 0 1 1.16291,-0.5079 1.637,1.637 0 0 1 1.457,0.8471 l 4.27014,7.8984 a 2.65675,2.65675 0 0 0 2.97482,1.3632 h 0.0213 a 2.66045,2.66045 0 0 0 2.10809,-2.5268 l 0.85539,-18.2321 a 1.66265,1.66265 0 0 1 0.16693,-0.6551 1.76913,1.76913 0 0 1 0.42864,-0.5292 l 12.02705,-9.8728 a 2.72169,2.72169 0 0 0 -1.14858,-4.7633 z m 0.46174,3.924 -12.027,9.8728 a 2.68281,2.68281 0 0 0 -0.42336,0.4277 2.52685,2.52685 0 0 0 -0.28948,0.4539 2.60723,2.60723 0 0 0 -0.19723,0.517 l 10e-4,0.01 a 2.57268,2.57268 0 0 0 -0.0856,0.5703 l -0.85514,18.232 a 1.57925,1.57925 0 0 1 -1.26293,1.5157 h -0.0106 a 1.58273,1.58273 0 0 1 -1.78924,-0.8125 l -4.27133,-7.9036 a 2.71289,2.71289 0 0 0 -2.22913,-1.4169 l -0.005,10e-4 c -0.0621,0 -0.124,-0.01 -0.18464,0 a 2.64572,2.64572 0 0 0 -1.23539,0.3068 2.607,2.607 0 0 0 -0.70984,0.5412 l -20.8472,21.9818 a 1.63145,1.63145 0 0 1 -2.64486,-0.4005 l -30.01464,-60.9514 a 1.63542,1.63542 0 0 1 1.80965,-2.3161 l 1.00577,0.2174 75.57211,16.3014 a 1.63482,1.63482 0 0 1 0.69408,2.8591 z"
     fill="#cccccc"
     id="path60" />
  <path
     d="m 489.39738,1388.2198 -0.44921,0.9905 -0.2775,-0.1224 h -10e-4 l -63.69327,-28.8811 53.18519,39.0748 0.005,-10e-4 0.14083,0.1081 -0.64128,0.8769 -0.92476,-0.6807 -52.41162,-38.4999 a 1.08883,1.08883 0 0 1 0.90758,-1.9383 0.94853,0.94853 0 0 1 0.17511,0.062 l 63.74374,28.909 z"
     fill="#cccccc"
     id="path62" />
  <path
     d="m 373.95758,504.71798 -110.32441,15.16536 -1.43352,0.19775 a 3.916584,3.916584 0 0 0 -2.17723,6.71317 l 70.6341,67.69591 a 3.9291696,3.9291696 0 0 0 3.47338,1.00989 3.889944,3.889944 0 0 0 2.81976,-2.2774 l 17.38359,-40.01243 a 2.2787136,2.2787136 0 0 1 1.32346,-1.25999 2.35728,2.35728 0 0 1 2.38878,0.42872 l 9.66816,8.58459 a 3.82572,3.82572 0 0 0 4.69681,0.37957 l 0.0264,-0.0173 a 3.831048,3.831048 0 0 0 1.60808,-4.4575 l -7.82199,-25.09219 a 2.394216,2.394216 0 0 1 -0.0967,-0.96862 2.5475472,2.5475472 0 0 1 0.31938,-0.92722 l 11.41207,-19.28282 a 3.9192336,3.9192336 0 0 0 -3.9002,-5.87986 z m 2.55742,5.08237 -11.412,19.28281 a 3.8632464,3.8632464 0 0 0 -0.36222,0.78729 l -100.49324,-7.72386 a 1.3669488,1.3669488 0 0 0 -0.26725,0.002 1.5679152,1.5679152 0 0 0 -0.27349,3.06978 l 89.88272,26.28319 a 3.754224,3.754224 0 0 0 -0.69395,1.08202 l -17.38333,40.01216 a 2.3492736,2.3492736 0 0 1 -3.77616,0.7607 l -70.63399,-67.69587 a 2.3550048,2.3550048 0 0 1 1.30803,-4.02533 l 1.46801,-0.20125 110.28954,-15.16161 a 2.3541408,2.3541408 0 0 1 2.34735,3.52702 z"
     fill="#bababa"
     id="path58-1"
     style="stroke-width:1.44" />
  <path
     d="m 373.95758,504.71798 -110.32441,15.16536 -1.43352,0.19775 a 3.916584,3.916584 0 0 0 -2.17723,6.71317 l 70.6341,67.69591 a 3.9291696,3.9291696 0 0 0 3.47338,1.00989 3.889944,3.889944 0 0 0 2.81976,-2.2774 l 17.38359,-40.01243 a 2.2787136,2.2787136 0 0 1 1.32346,-1.25999 2.35728,2.35728 0 0 1 2.38878,0.42872 l 9.66816,8.58459 a 3.82572,3.82572 0 0 0 4.69681,0.37957 l 0.0264,-0.0173 a 3.831048,3.831048 0 0 0 1.60808,-4.4575 l -7.82199,-25.09219 a 2.394216,2.394216 0 0 1 -0.0967,-0.96862 2.5475472,2.5475472 0 0 1 0.31938,-0.92722 l 11.41207,-19.28282 a 3.9192336,3.9192336 0 0 0 -3.9002,-5.87986 z m 2.55742,5.08237 -11.412,19.28281 a 3.8632464,3.8632464 0 0 0 -0.36222,0.78729 3.638664,3.638664 0 0 0 -0.16816,0.75679 3.7544112,3.7544112 0 0 0 -0.013,0.7967 l 0.005,0.006 a 3.7046592,3.7046592 0 0 0 0.16505,0.81382 l 7.82231,25.092 a 2.27412,2.27412 0 0 1 -0.96246,2.67296 l -0.013,0.008 a 2.2791312,2.2791312 0 0 1 -2.8213,-0.21828 l -9.67239,-8.59117 a 3.9065616,3.9065616 0 0 0 -3.71419,-0.81942 l -0.006,0.005 c -0.0856,0.0265 -0.17075,0.053 -0.25182,0.0856 a 3.8098368,3.8098368 0 0 0 -1.52058,1.02357 3.75408,3.75408 0 0 0 -0.69394,1.08204 l -17.38334,40.01216 a 2.349288,2.349288 0 0 1 -3.77616,0.7607 L 261.10306,525.6628 a 2.3550048,2.3550048 0 0 1 1.30804,-4.02533 l 1.46801,-0.20125 110.28953,-15.1616 a 2.3541408,2.3541408 0 0 1 2.34736,3.52701 z"
     fill="#a6a6a6"
     id="path60-3"
     style="stroke-width:1.44" />
  <path
     d="m 365.1204,529.89806 -0.1201,1.56147 -0.43579,-0.0289 -0.005,-0.006 -100.41121,-7.7111 91.21265,26.6802 0.006,-0.005 0.24378,0.0769 -0.43587,1.50245 -1.58661,-0.4657 -89.8827,-26.28318 a 1.5679152,1.5679152 0 0 1 0.27349,-3.06978 1.3658832,1.3658832 0 0 1 0.26723,-0.002 l 100.49322,7.72397 z"
     fill="#a6a6a6"
     id="path62-6"
     style="stroke-width:1.44" />
  <path
     d="m 204.04396,1010.6796 a 3.75814,3.75814 0 0 0 -6.41362,1.9685 l -3.136,20.7069 a 2.35166,2.35166 0 0 1 -0.32043,0.8607 2.25849,2.25849 0 0 1 -0.653,0.6456 l -20.84635,13.5954 a 3.54494,3.54494 0 0 0 -1.48659,4.1802 l 0.009,0.028 a 3.642,3.642 0 0 0 3.701,2.4903 l 12.30249,-0.5342 a 2.25523,2.25523 0 0 1 2.02379,1.0956 2.09366,2.09366 0 0 1 0.22233,1.6932 l -11.1636,39.2598 a 3.58139,3.58139 0 0 0 0.71812,3.3123 3.77683,3.77683 0 0 0 3.17464,1.3127 l 92.8684,-7.5137 a 3.76489,3.76489 0 0 0 2.25272,-0.9793 3.61019,3.61019 0 0 0 0.167,-5.1723 l -0.94135,-0.9875 -72.4791,-75.962 z m -4.942,2.1807 a 2.18629,2.18629 0 0 1 0.68372,-1.2767 2.273,2.273 0 0 1 3.16927,0.1005 l 72.45558,75.9388 0.96475,1.0104 a 2.18081,2.18081 0 0 1 0.59183,1.308 2.213,2.213 0 0 1 -2.04087,2.382 l -92.86836,7.5138 a 2.27847,2.27847 0 0 1 -0.77873,-0.073 2.19006,2.19006 0 0 1 -1.557,-2.7023 l 11.16362,-39.2594 a 3.444,3.444 0 0 0 0.13635,-1.1935 l 82.24335,33.8599 a 1.51459,1.51459 0 0 0 1.65467,-0.3162 1.44519,1.44519 0 0 0 -0.0142,-2.0716 1.29492,1.29492 0 0 0 -0.19574,-0.1596 l -78.949,-53.5699 a 3.553,3.553 0 0 0 0.20474,-0.7844 l 3.136,-20.7068 z"
     fill="#e6e6e6"
     id="path64" />
  <path
     d="m 204.04396,1010.6796 a 3.75814,3.75814 0 0 0 -6.41362,1.9685 l -3.136,20.7069 a 2.35166,2.35166 0 0 1 -0.32043,0.8607 2.25849,2.25849 0 0 1 -0.653,0.6456 l -20.84635,13.5954 a 3.54494,3.54494 0 0 0 -1.48659,4.1802 l 0.009,0.028 a 3.642,3.642 0 0 0 3.701,2.4903 l 12.30249,-0.5342 a 2.25523,2.25523 0 0 1 2.02379,1.0956 2.09366,2.09366 0 0 1 0.22233,1.6932 l -11.1636,39.2598 a 3.58139,3.58139 0 0 0 0.71812,3.3123 3.77683,3.77683 0 0 0 3.17464,1.3127 l 92.8684,-7.5137 a 3.76489,3.76489 0 0 0 2.25272,-0.9793 3.61019,3.61019 0 0 0 0.167,-5.1723 l -0.94135,-0.9875 -72.4791,-75.962 z m -4.942,2.1807 a 2.18629,2.18629 0 0 1 0.68372,-1.2767 2.273,2.273 0 0 1 3.16927,0.1005 l 72.45558,75.9388 0.96475,1.0104 a 2.18081,2.18081 0 0 1 0.59183,1.308 2.213,2.213 0 0 1 -2.04087,2.382 l -92.86835,7.5137 a 2.27847,2.27847 0 0 1 -0.77873,-0.073 2.19007,2.19007 0 0 1 -1.557,-2.7022 l 11.16363,-39.2594 a 3.44423,3.44423 0 0 0 0.13635,-1.1935 3.51082,3.51082 0 0 0 -0.51,-1.6379 c -0.0401,-0.072 -0.0873,-0.1409 -0.13448,-0.2105 l -0.002,-0.01 a 3.74454,3.74454 0 0 0 -3.23844,-1.5926 l -12.30955,0.5365 a 2.16924,2.16924 0 0 1 -2.21734,-1.503 l -0.005,-0.014 a 2.10447,2.10447 0 0 1 0.8928,-2.5056 l 20.84648,-13.595 a 3.515,3.515 0 0 0 0.61051,-0.4932 h 0.007 a 3.51869,3.51869 0 0 0 0.46914,-0.5851 3.37363,3.37363 0 0 0 0.32992,-0.648 3.553,3.553 0 0 0 0.20474,-0.7844 l 3.136,-20.7069 z"
     fill="#cccccc"
     id="path66" />
</svg>
