<svg id="Capa_1" data-name="Capa 1" xmlns="http://www.w3.org/2000/svg" viewBox="0 0 98 144.5"><defs><style>.cls-1{fill:#1d1d1b;}.cls-2{fill:#fff;}.cls-3{fill:#f7b194;}.cls-4{fill:#f7e31f;}.cls-5{fill:#f4d425;}.cls-6{fill:#e8412d;}.cls-7{fill:#f3cd26;}.cls-8{fill:#777776;}</style></defs><title>Space_Ghost</title><path class="cls-1" d="M1002.8,489.3c.4,2,2.2,10.8,4.8,14.3a12.4,12.4,0,0,1,8.5-.3c3.5.9,6.1,3.5,8.4,6.2s3.1,5,4.6,7.5,1,2.1,1.4,3.2.8,2.5,1.1,3.8a44.8,44.8,0,0,1,1.1,10.4c.2,2.4.1,5,.1,7.5a82.1,82.1,0,0,1-3.3,19.2c-1,3.3-2.4,6.4-3.6,9.6s-3.2,7.3-4.7,11a1.5,1.5,0,0,0-.4,1.2c.6.8.8,1.6,1.3,2.4a33.1,33.1,0,0,1,1.8,5.3,22.7,22.7,0,0,1,.6,2.5,17.5,17.5,0,0,1,.4,3.2c0,.6-.1,1.3-.1,2-.2,2.2-.5,4.3-.9,6.5a64.5,64.5,0,0,1-1.6,6.3c-.2,1,.4,2,.3,3.1a18.5,18.5,0,0,0-.4,2.3,5.6,5.6,0,0,0,0,1.3,13.7,13.7,0,0,0,.2,1.9,24.4,24.4,0,0,0,.1,2.7,8.1,8.1,0,0,1-.1,1.6c-.2.3-.2.8-.5,1.1a3.3,3.3,0,0,1-1.4,1.2c-.4.4-1,.5-1.4.9a8.3,8.3,0,0,1-3.5,1,4.7,4.7,0,0,1-2.6-.5,2.7,2.7,0,0,1-1.4-2.3,12,12,0,0,1,0-1.9c.2-.5.3-1,.5-1.5s.9-2.1,1.2-3.2.9-3,1.3-4.5,0-.5,0-.7-.2-1-.1-1.6a2.8,2.8,0,0,1,.1-.9,9.2,9.2,0,0,0,.7-3.7c0-6.3-2.5-11.9-2.9-13.5-.4.6-3.9,4.1-7.5,3.4a5,5,0,0,1-3.6-3.2,3.5,3.5,0,0,1-1.3-1.4c-.2-.2-.2-.6-.3-.8a7.8,7.8,0,0,1-.2-1.4,16.2,16.2,0,0,1,0-2.2c.4-2.9,1.4-7.1,1.3-8.8a10.3,10.3,0,0,0-3.2,2.7c-.2,3.7,1.1,7.1.4,10.8a20.7,20.7,0,0,1-1.8,4.7,19,19,0,0,0-1.9,12,4.1,4.1,0,0,1-.4,1.9,3.4,3.4,0,0,1-2.7,1.8,12,12,0,0,0-4.9.6,12.7,12.7,0,0,1-5.4,1.7c-2.9.3-6.7-.6-7.3-1.9s.1-.9.4-1.5,6.4-2.9,10.3-6.2c1.5-1.2,3-2.2,3.3-4.4.5-3.7.2-7.7.3-11.6-3.2,2.1-7.8,5.9-11.3,1.9-2.2-2.5-1-6.5.3-9.4s5.2-7.6,5.4-10.4c-4.4-1-12.6,1.5-14.5,1.8-6.4,2.6-11.1,6-20,4.3a6.1,6.1,0,0,1-4.9-6.5c.4-.8-.1-1.6.1-2.4a16.8,16.8,0,0,1,.9-3.2c3.2-6.6,9.5-8.9,14.6-12.8,2.1-1.6,6.3-4.9,4.9-6s-6.3-.5-7.6-.3c-6.6,2.4-16.6,10.1-20.3,5.8-.6-.6-.5-2.2-.1-3.2s-.5-4.5.2-6c3.4-6.5,8.6-11.3,14.7-15.6,8.5-5.9,18.9-10.5,30.1-14.3a8.9,8.9,0,0,1,3.9-5.2,23.9,23.9,0,0,1,2.8-3.5c1.1-1.1,2.7-2,4.3-1.5a5.8,5.8,0,0,0,.3-1.9,11,11,0,0,1-1.1-3.5c-.4-2-.8-3.4-1.2-6-1-5.6,1.5-7.8,6.2-8.4,3-.3,6.3.9,7.2,5.5Z" transform="translate(-934.8 -483.8)"/><path class="cls-2" d="M994.1,491.6c.9-.3,1.1-1.5,3.5-2-.5,2.6-2.6,2.2-3.5,2Z" transform="translate(-934.8 -483.8)"/><path class="cls-2" d="M992.2,491.8c-1,1.4-2.1-.5-2.1-.9l2.1.9Z" transform="translate(-934.8 -483.8)"/><path class="cls-3" d="M998.8,494.2c.6.8,1.1,4.4,1.1,5.3-1.7,1.4-3.6,3-5.9,2.6-.3-.1-.5-.3-.5-.5s-.1-.2-.1-.4a.7.7,0,0,0-.2.8,3.2,3.2,0,0,1-1.8-2.5,42.5,42.5,0,0,0-.9-4.4,2.2,2.2,0,0,1,1.3-.8l1,.5,1.9-.9a11.4,11.4,0,0,1,4.1.3Z" transform="translate(-934.8 -483.8)"/><path class="cls-1" d="M998.7,497.9c-.1.1,0,.5-.3.3s-.1-.1-.1-.2a10.3,10.3,0,0,0-1-3.1,4.3,4.3,0,0,1,1.4,3Z" transform="translate(-934.8 -483.8)"/><path class="cls-1" d="M996.3,496.5c-.2.1-.4-.1-.6,0s-1,.6-1.6.7a1.5,1.5,0,0,1-1.7-.2c-.2-.1-.3-.5-.5-.2a.8.8,0,0,1-.4.4,5.4,5.4,0,0,0,.3-1c.2-.1.2.1.3,0l.9-.3c.8-.3,1.6.1,2.3.1s.3-.2.4-.3a1.2,1.2,0,0,0,.6.8Z" transform="translate(-934.8 -483.8)"/><path class="cls-2" d="M994.9,496.3c-.7.2-1.8.8-2.4.2a6.3,6.3,0,0,1,2.4-.2Z" transform="translate(-934.8 -483.8)"/><path class="cls-1" d="M995.6,497.9a2.3,2.3,0,0,1-3.5-.2,2.8,2.8,0,0,0,2.9-.1c.2.1.5.1.6.3Z" transform="translate(-934.8 -483.8)"/><path class="cls-4" d="M1015.2,503.7l.8.3a9.2,9.2,0,0,1,2.3.9,15.9,15.9,0,0,1,6,5.8,50.9,50.9,0,0,1,3.1,5.5c.3.9.7,1.7,1,2.5a47,47,0,0,1,1.3,6.3c0,.3.1.6.1.9a59.6,59.6,0,0,1,.1,14c-.2,4.4-1.4,8.6-2.4,12.7s-1.8,6.3-2.9,9.3-1.8,4.2-2.7,6.4-2.6,5-3.7,7.5a15.5,15.5,0,0,1-.6-2.3c-.1-1-.3-2.1-.4-3-.2-2.5-.3-4.9-.4-7.4s-.3-2.4-.4-3.6c.9.3,2.2.7,2.9-.1l.5.2c1.2,0,2.5-1.2,3.1-1.6a2.3,2.3,0,0,0,.7-.7,33.8,33.8,0,0,0,.4-7.1c0-.1.4-.2.5-.3s2.4-11.1,2.2-12a.5.5,0,0,0-.3-.3c.5-2.6-.4-5.2-.9-7.7s.1-2.4.1-3.7c-.4-3.4-1.6-6.3-2.3-9.6a16.9,16.9,0,0,0-1.3-5.9c-.3-.5-.5-1-.9-1.6-4.3-6.8-12.5-4.9-18-1.9,2.2-1.5,4.3-3.2,7-3.6a11,11,0,0,1,5.1.1Z" transform="translate(-934.8 -483.8)"/><path class="cls-4" d="M991.3,504.3a17.9,17.9,0,0,1-.7,3.3c.3-3.6-2.7-2.4-4-.9,1.2-1.8,2.8-3.3,4.7-2.4Z" transform="translate(-934.8 -483.8)"/><path class="cls-2" d="M1017.8,506.7a10.5,10.5,0,0,1,1.7,1.4,11.7,11.7,0,0,1,2.9,6.5c0,.3.1.6.1,1a17.7,17.7,0,0,0,.8,4c.4,1.1.6,2.1.9,3.2a14.2,14.2,0,0,1,.5,2.2,12.9,12.9,0,0,1,.1,2.8,17.7,17.7,0,0,0,0,2.3c.5,2.3,1.4,4.7.8,7a14.5,14.5,0,0,0-8.5-.1,11.8,11.8,0,0,1-1-6.9c.5.4.6,1.2,1.1,1.6a2.9,2.9,0,0,0-.8-2.3l-1-1a12.9,12.9,0,0,1-4.2-11c-.1-.1-.1-.3-.3-.3a.4.4,0,0,0-.5,0c-2.1,2-5.2,2.1-7.9,1.5,2.3,1.8,5.4.8,7.8-.4a14.8,14.8,0,0,0,3.5,9.6c-1,.9-1.4,2.4-2.1,3.6-8.5-1.9-15.1-1.8-21.5.3-1-2.5-3.2-4.1-4.1-6.6a12.2,12.2,0,0,1-.6-4.2c.3.1.4.3.7.3s-.6-.3-1.3-1.4,1.3-6.5,2.2-8.1c-4.5,4.8-3.3,8.4-2.4,8.9s0,1.6.2,2.4a9.1,9.1,0,0,0,1.4,4,7.1,7.1,0,0,0,1,1.4c-.1.5.3,1.2.4,1.8s.5-.4.4-.7a11,11,0,0,1,1.5,2.5l-.9.4c0,.8.2,5.4,0,7.4h.3a.8.8,0,0,1-.1.4,9.3,9.3,0,0,0-3.8-1.7c0-.1.1-.2.2-.3s0-.3,0-.4h.3c-.2-.7.5-.3.4-1s-.8-2.4-1.9-3,.6.9.5,1.3.2.5.4.8-.5-.9-.9-.8.2.5.2.8l.3.8h-.2c-.1.2,0,.3-.2.4a2.9,2.9,0,0,1,.5,1.4,10.8,10.8,0,0,0-4,0c-.8-2,.5-4,1.2-5.8s0-.6.1-.9c-.8-3.2-1.6-6.6-.2-9.7-2.9-4.9-.5-14.8,6.6-13.2.8,2.9,3.1,4.9,3.8,7.8a43,43,0,0,1,9.7-8.3c3.5-1.6,10.6-5.1,15.9-1.7Z" transform="translate(-934.8 -483.8)"/><path class="cls-5" d="M989.4,505.9c.7.2.5,2-.1,2.8-.6-.9-1.7-.9-2.7-.9.6-.9,1.5-2.2,2.8-1.9Z" transform="translate(-934.8 -483.8)"/><path class="cls-6" d="M999.8,509a43.7,43.7,0,0,0-5,4c.3-.6,1.4-3.6-.5-3.6s-2.6,2.6-3,3.5a8.5,8.5,0,0,1-1.8-3.7c1.3-.1,7.6-.3,10.3-.2Z" transform="translate(-934.8 -483.8)"/><path class="cls-5" d="M980.1,514.7c-16.8,7.7-36.9,15.7-44.5,34.1-.5-.7-.3-5,3.7-9.5,10.3-13.5,32.1-21.8,40.9-24.7a.1.1,0,0,1-.1.1Z" transform="translate(-934.8 -483.8)"/><path class="cls-4" d="M980.1,515.5a5,5,0,0,0-.2,1.7,10.9,10.9,0,0,0,1,4.6,19.2,19.2,0,0,1-.5,3.2c-.3,2.5.6,5,.8,7.5s-1,2-1.2,3.1a6.1,6.1,0,0,0,.1,3l-1.4.6c-.2.2.1,1,.1,1.2a4.8,4.8,0,0,1-1.1.8c.8,2.7.3,5.8.2,8.2l1.2.4c.1.5-.1,1.1.1,1.6l.5-.2c.1.9-1.4,2.2-1.6,2.6a1.5,1.5,0,0,0-.4,1c.2,1.3,0,2.6.2,3.9a13.8,13.8,0,0,0,1.4,2.7,1,1,0,0,0,1.4.5,1.3,1.3,0,0,0,.6.4.9.9,0,0,0,.7-.1l.7-.6a3.3,3.3,0,0,0,2.2-.8,2.3,2.3,0,0,0,1.2-.8,5.4,5.4,0,0,0-.1-2.5,25.3,25.3,0,0,0,.1-2.8,5.4,5.4,0,0,1-.5-1.1,8.1,8.1,0,0,1,.1-1.5c-.1-.6.3.4.5,0a33.7,33.7,0,0,1,1.8-7.9c-.5,3.6-.9,7.2-1.4,10.8-.6,5.7-.9,12,2.3,17.2.3,1.3-.3,2.6-.1,4a5.1,5.1,0,0,0,.4,2.4c-.3,2-.4,4.2-.9,6.3s-7,5.8-9,3.7c-4-4.2,7-11,5-15.6a2.9,2.9,0,0,0-1.1-1.1c0-.4-.5-2.5-2.1-2.8-4.3-.6-10,2.7-13.6,4.2s-11.2,2.7-19.3,1.2c-3.7-.8-4.3-2.8-4.4-3.1,1.3-8.7,27.2-17.8,24.7-25.6-.5-1.7-2.3-2.3-3.9-2.3-3.5-.2-8,2.3-9,2.9-6.5.9-16.1,5.5-19.5,3.1,9.5-21.4,32.4-27.5,44-34Z" transform="translate(-934.8 -483.8)"/><path class="cls-5" d="M1031.6,528.4c.4,2.5.3,5,.5,7.5a96.5,96.5,0,0,1-.5,10.8,77.1,77.1,0,0,1-3.6,16.5c-2,5.2-4,10.4-6.3,15.5a31.3,31.3,0,0,0-1.5,3.2,14.8,14.8,0,0,1-1.8-4.7c1-2.7,2.7-5.1,3.8-7.7s1.8-4.1,2.6-6.1a37.3,37.3,0,0,0,1.4-4c1-3,1.8-6,2.6-9,.2-1,.5-2,.8-3.1a27.9,27.9,0,0,0,.7-4c.3-1.6.3-3.1.5-4.7a54.1,54.1,0,0,0,0-9,51.2,51.2,0,0,0-1.6-10.4,31.3,31.3,0,0,1,2.4,9.2Z" transform="translate(-934.8 -483.8)"/><path class="cls-1" d="M993,518.8a6.9,6.9,0,0,0-.4,5.2,3.9,3.9,0,0,1,.4-5.2Z" transform="translate(-934.8 -483.8)"/><path class="cls-1" d="M985.9,519a6.6,6.6,0,0,0,1.5,2.2,1,1,0,0,1-.7-.4,5.5,5.5,0,0,1-1.3-1.7c-.1-.1,0-.2,0-.4h.3l.2.3Z" transform="translate(-934.8 -483.8)"/><path class="cls-1" d="M988.6,521a2.6,2.6,0,0,1-1.8-1.4.1.1,0,0,1,.1-.1c.2.1.3-.1.4.1a3.5,3.5,0,0,0,1.3,1.4Z" transform="translate(-934.8 -483.8)"/><path class="cls-1" d="M993.7,522.2a11.7,11.7,0,0,0,.5,4c-.9-.6-1.6-3.7-.5-4Z" transform="translate(-934.8 -483.8)"/><path class="cls-1" d="M994.8,524.6a5.9,5.9,0,0,1,.2,1.4,2.9,2.9,0,0,1-.4,1.6c-.3-.4-.1-1.1-.2-1.6s-.4-1.3-.2-1.7.5,0,.6.3Z" transform="translate(-934.8 -483.8)"/><path class="cls-1" d="M995.2,530.2c0-.1-.1.1-.2,0l-.3-.2c.1-1.1.6-2.1.8-3.2a4.5,4.5,0,0,1-.3,3.4Z" transform="translate(-934.8 -483.8)"/><path class="cls-4" d="M1014.7,528.7l.8.7c-.4,2.6-.4,5.5.9,7.8a2.8,2.8,0,0,0-.8.6c.6,3.4.8,6.8,1.1,10.2.1.3-.1.7.3,1s.2-.1.2,0-1.9,1.1-2.8,1.8c-.5-3.2-1.7-8.1-2.4-10.7h.4s0-5.4.3-8.1l-.2-.2.5-1.2a5.2,5.2,0,0,1,.6-1.3,7.1,7.1,0,0,1,.7-.9l.4.4Z" transform="translate(-934.8 -483.8)"/><path class="cls-1" d="M1019.7,530.1c.1.1,0,.3-.1.4a6.5,6.5,0,0,0-1.6,2.1,5.3,5.3,0,0,1,1.2-2.5c.2-.1.4-.2.5,0Z" transform="translate(-934.8 -483.8)"/><path class="cls-1" d="M987.8,532.1c-.1.1-.1.3-.3.2a29.9,29.9,0,0,1-.8-3.2c.9.7.8,2,1.1,3Z" transform="translate(-934.8 -483.8)"/><path class="cls-1" d="M1019.5,531.9c-.2.5-.9,1.1-1.4,2.1a8.2,8.2,0,0,1,1.2-2.5.8.8,0,0,1,.2.4Z" transform="translate(-934.8 -483.8)"/><path class="cls-1" d="M987,532.9c-.1.1.2.8-.3.5s-.4-2-.5-3.1a5.3,5.3,0,0,1,.8,2.6Z" transform="translate(-934.8 -483.8)"/><path class="cls-6" d="M995.4,531.3a35.2,35.2,0,0,1,11.2.1c.2,2.3.1,6.6.1,6.6a57.6,57.6,0,0,0-16.7,1v-6.2a24.6,24.6,0,0,1,5.4-1.5Z" transform="translate(-934.8 -483.8)"/><path class="cls-1" d="M1018.6,535.4c0,.2-.3.3-.3,0a6.7,6.7,0,0,1,.9-2.2,8.5,8.5,0,0,1-.6,2.2Z" transform="translate(-934.8 -483.8)"/><path class="cls-6" d="M1019.5,537.2a11.9,11.9,0,0,1,6.5.9c-.5,3.7-1.4,7.5-2.1,11.1a11.5,11.5,0,0,0-6.6-.9,90.2,90.2,0,0,0-1-10.2,11.7,11.7,0,0,1,3.2-.9Z" transform="translate(-934.8 -483.8)"/><path class="cls-1" d="M1024.8,538.7c-.2,1.4-1.3,7.2-1.6,9.1a11.9,11.9,0,0,0-3.8-.5h-.1c.1-3.1.1-5.7.2-8.7l.9-.6a17.2,17.2,0,0,1,4.4.8Z" transform="translate(-934.8 -483.8)"/><path class="cls-7" d="M1019.9,546.9h-.2c.1-2.9.2-5.4.3-8.2l.3-.2c.1.3-.4,7.6-.4,8.4Z" transform="translate(-934.8 -483.8)"/><path class="cls-4" d="M1024.1,539.1a21.7,21.7,0,0,1-.4,2.5c-.9,0-1.8-.3-2.8-.4a21.7,21.7,0,0,0,.1-2.6l3.1.5Z" transform="translate(-934.8 -483.8)"/><path class="cls-2" d="M1011.3,540c1.1,3.7,1.9,7.6,2.6,11.1-.2.7-.4,1.8-.6,2.7a4.3,4.3,0,0,0-.1,1.9c.3.6,1,1.1,1.3,1.6s-.3.9,0,1.3a6.7,6.7,0,0,0,1.1.7c.8,4.4.4,9.2,1.2,13.5.3,1.9.7,3.9,1.2,5.8a10.7,10.7,0,0,0,1.9,4.2,23,23,0,0,1,2,4.2,22,22,0,0,1,1.3,3.6c.3,1.6.7,3.2.9,4.8s0,2.4-.1,3.5-.3,2-.4,2.9a38.6,38.6,0,0,1-1.2,5.7c-.3,1.4-.9,3.8-1,4.2s.4,1.2.4,2.4a13,13,0,0,1-.4,2.7,48.6,48.6,0,0,1,.3,6.6,1.1,1.1,0,0,1-.2.8c-.2.1-.1.4-.3.6s-.3,0-.4.3a13.4,13.4,0,0,1-2.8,1.8,6.4,6.4,0,0,1-2.8.6,2.5,2.5,0,0,1-1.2-.1,2.1,2.1,0,0,1-1.6-1.4,7.5,7.5,0,0,1,.1-2.6c.5-2,1.5-3.7,2-5.7a19.8,19.8,0,0,0,.6-2.6,11.6,11.6,0,0,0,.4-1.8l-.3-1c.1-1.2.5-1.4.8-3.5.8-6.2-2.8-14.8-3-15.7s-.2-3.6-.5-5.5-.3-1.6-.4-2.3-1.3-1.8-2.1-2.6-.6-1.8-1-2.7-.4-2.7-1.4-3.6.1,1,.2,1.5-1.1-1.4-1.5-2.2a45.3,45.3,0,0,1-2.6-6,17.7,17.7,0,0,1-.6-1.7c-1.6-4.6-1.9-9.4-3.8-14-1.8-.9-3.1-2.5-4.6-3.7a9.4,9.4,0,0,0,3.9,4,45,45,0,0,1,2.2,8.2c-.3,2.1-.9,4.2-1.4,6.3-.1.4-.3.9-.4,1.4s.1,0,0,.1a3.9,3.9,0,0,0-.5,1.3c-.7,1.2-.4,2.6-.4,3.9a17.6,17.6,0,0,1-.9,5.1c-1.1,4.4,1.4,8.9-.3,13.3-.4,1.3-.9,2.5-1.4,3.8a15,15,0,0,0-1.8,5,1.5,1.5,0,0,0-.2.9,25.3,25.3,0,0,0,.1,5.5c0,1.4-.4,2.9-1.8,3.5s-3.4-.2-5,.4-5.3,3.6-11.7,1.1c-.6-.3-1.2-.8-.1-1.6a35,35,0,0,1,5.7-3c3-1.6,6.6-4.4,7.2-6.2a12,12,0,0,0,.7-4.3c.3-4.7-.1-11.2.5-14s.4-3,.6-4.6c.1,0,.4.6.4.6s-.1-1.7-.2-2.3a9.1,9.1,0,0,1-.3-4.9c.3-1.8-1-3.1-1.5-4.7-2.3-8.1-.4-16.5.6-24.6l1-4.5c5.1-1.1,14.7-2.1,21.6,0Z" transform="translate(-934.8 -483.8)"/><path class="cls-6" d="M988.4,540.7c-1,3.4-2.3,6.4-2.7,10.6a9,9,0,0,0-5.9-.7c0-3.5.5-7.4-.4-10.8a9.8,9.8,0,0,1,9,.9Z" transform="translate(-934.8 -483.8)"/><path class="cls-4" d="M1023.7,542.3s-.3,1.7-.5,2.3a19,19,0,0,0-2.5-.3c.1-.7.2-2.4.2-2.4l2.8.4Z" transform="translate(-934.8 -483.8)"/><path class="cls-7" d="M979.2,543.9l-.5.2a23.3,23.3,0,0,0-.3-2.7l.5-.3a12.8,12.8,0,0,1,.3,2.8Z" transform="translate(-934.8 -483.8)"/><path class="cls-4" d="M1023.2,545.2l-.4,1.9a15.2,15.2,0,0,0-2.1-.3,12.1,12.1,0,0,1,.1-1.9l2.4.3Z" transform="translate(-934.8 -483.8)"/><path class="cls-7" d="M979.3,544.6v2.1h-.6c.1-.7,0-1.3.1-2a.4.4,0,0,1,.5-.1Z" transform="translate(-934.8 -483.8)"/><path class="cls-5" d="M967.6,546c2.5,6.4-21.7,16-23.9,23.4a14.4,14.4,0,0,1,4.7-7.9c3.7-3.4,18.5-10.9,15.9-14.3-1.4-1.7-5-1.3-6.3-1.2,1.4-.5,8.3-3.4,9.6,0Z" transform="translate(-934.8 -483.8)"/><path class="cls-2" d="M1023.3,549.7c0,1.5.3,4.7-.3,7.2-.2.4-.5.5-.7.7s-.1-.3-.1-.5c-.7,1.6-2.3,1.9-2.4,1.6s1.4-1.3.4-1.4-1.6,2.8-3,1.6a4,4,0,0,0,1.5-2.6c-1,.8-1.8,2.5-2.8,2.4l-.9-.5a4.5,4.5,0,0,1,1.2-2.1,1.5,1.5,0,0,1,.3-1.4c-.1-.3.4-.7.3-.9s-.5.2-.8.2-.3-.5-.6-.7a3.2,3.2,0,0,0,.2,1.4,3,3,0,0,1-.7,1.9c-.5-.3-1.1-.9-1.1-1.2s.6-3.1.7-3.7,3.2-1.3,3.4-2.8a12.5,12.5,0,0,1,5.4.8Z" transform="translate(-934.8 -483.8)"/><path class="cls-7" d="M979.2,549.2l-.7-.3a8.1,8.1,0,0,0,.1-1.6.9.9,0,0,0,.7,0,12.8,12.8,0,0,1-.1,1.9Z" transform="translate(-934.8 -483.8)"/><path class="cls-5" d="M952.9,547.7c-5.3,2.2-14.2,8-16.9,4.7a2.7,2.7,0,0,1-.1-2.2c3.6,1.4,7.3,0,10.9-.8a60.9,60.9,0,0,1,6.1-1.7Z" transform="translate(-934.8 -483.8)"/><path class="cls-2" d="M985.2,551.9a4,4,0,0,0-.1,2.4,1.9,1.9,0,0,1,.5,1.1,4.1,4.1,0,0,0-.1,1.1,1.1,1.1,0,0,0-1.4.1c-.2-.2-.9.1-1.1.3s-1.3.1-1.4.6-.5.2-.7.4a2.5,2.5,0,0,1-.1-.9,4.3,4.3,0,0,0,2.2-1.7,7.4,7.4,0,0,1-2.8,1.4,8.1,8.1,0,0,1,.1,1.6,1.7,1.7,0,0,1,1.1,1.2v.2c-.5.2-.8-.3-1.2-.4l-1.4-.4c-.3-.1-.2-.5-.3-.7s-.1-2.2-.2-3.4,1.7-1.9,2.4-3.6a7.8,7.8,0,0,1,4.5.7Z" transform="translate(-934.8 -483.8)"/><path class="cls-1" d="M1020.7,556a3,3,0,0,0,.4-1.8c.7.4.4,1.4-.4,1.8Z" transform="translate(-934.8 -483.8)"/><path class="cls-1" d="M1022.6,556.2c-.2-.1-.3,0-.3-.2s-.2-1,.4-1.3.3,1.1-.1,1.5Z" transform="translate(-934.8 -483.8)"/><path class="cls-2" d="M985.4,557.4a7.5,7.5,0,0,1,.2,2.1c0,.3-.3.5-.6.6s.1-2.5-.3-3.1.6-.1.7.4Z" transform="translate(-934.8 -483.8)"/><path class="cls-2" d="M984.2,557.2a12.3,12.3,0,0,1,.3,3.3c-.2.4-.7.4-1.1.4a3.9,3.9,0,0,0,.6-1.1,5.3,5.3,0,0,0-.5-2.4.7.7,0,0,1,.7-.2Z" transform="translate(-934.8 -483.8)"/><path class="cls-2" d="M983,557.6a3.4,3.4,0,0,1,.3,2.5,11.9,11.9,0,0,1-1.6,1.6c-.1.1-.5-.1-.5-.1l1.4-1.7a2.1,2.1,0,0,0,.2-1.7l-.5-.6s.6-.5.7,0Z" transform="translate(-934.8 -483.8)"/><path class="cls-2" d="M982.3,559.1c-.1.3-.2.3-.4.6a1.6,1.6,0,0,0-.5-1.4l.6-.2a1.3,1.3,0,0,1,.3,1Z" transform="translate(-934.8 -483.8)"/><path class="cls-2" d="M980.8,560.3h.5a5.6,5.6,0,0,1-1.1,1.1l-.5-.6a7.5,7.5,0,0,0-.7-1.2,5.9,5.9,0,0,1,1.8.6Z" transform="translate(-934.8 -483.8)"/><path class="cls-4" d="M1004.2,573a25.3,25.3,0,0,0,1.4,2.9c.4.8.9,1.4,1.3,2.1a8.8,8.8,0,0,0,1.2,1.5,10.3,10.3,0,0,0,.4,1.4,6.7,6.7,0,0,0,.7,1.8c.6,1.2,1.9,2.1,2.2,3.4a5.5,5.5,0,0,1,.3,1.7,2.4,2.4,0,0,1-.6,1c-2.6,2.3-5.4,5.6-9.2,4.9-1.6-3,.4-7.5,1.3-11.6a3.1,3.1,0,0,0-1.9-3.7,2.9,2.9,0,0,0-2.8.1,22.7,22.7,0,0,0,.3-4.5c-.2-1.2.5-2,.7-3s1-4.4,1.9-6.5a52.8,52.8,0,0,0,2.8,8.5Z" transform="translate(-934.8 -483.8)"/><path class="cls-5" d="M982.4,571.4c-5.5-.7-9.4.9-12.6,1.5,3.2-1.1,6.7-3.4,11.1-3.2a1.8,1.8,0,0,1,1.5,1.7Z" transform="translate(-934.8 -483.8)"/><path class="cls-5" d="M978.2,588.5c2.2,3.6,7.3-.3,10-2.3a22.3,22.3,0,0,0-.3,2.7,20.8,20.8,0,0,1-6.1,3.8,4.7,4.7,0,0,1-4.2-.6c-2.1-1.8-1.6-5.7-.1-9s5.1-7.7,5.6-10.4c3.5,3.8-8.1,10.7-4.9,15.8Z" transform="translate(-934.8 -483.8)"/><path class="cls-1" d="M994.8,574.9a14.6,14.6,0,0,1,.5,2c-.1.2,0,.5,0,.7a34.5,34.5,0,0,0-1.4-3.4c.1,0,0-.4.2-.2s.5.6.7.9Z" transform="translate(-934.8 -483.8)"/><path class="cls-5" d="M953.2,575.6a42.3,42.3,0,0,0,12-1.2c-3.4,1.6-9.1,4.3-16.3,3.3-5-.8-5.4-4.8-5.3-5.2.9,1.5,3.5,3.4,9.6,3.1Z" transform="translate(-934.8 -483.8)"/><path class="cls-1" d="M994.5,576.9a8.5,8.5,0,0,1,.4,1.7.6.6,0,0,1-.1.4c-.1-.1,0,.2-.1,0s-.7-2.1-1.1-3.2.1-.2.2-.1a2.9,2.9,0,0,1,.7,1.2Z" transform="translate(-934.8 -483.8)"/><path class="cls-1" d="M1015.6,580.4c0,.2-.5.2-.3.5a2.9,2.9,0,0,1,.2.9c0,.3-.3.7-.5.6s.2,1.4-.5,1.7a28.5,28.5,0,0,0-.3-2.9c.2.1.4-.3.6,0s-.9-1.4-.9-2.1.8.6,1.1,1-.8-2-1-2.9,1.5,2,1.6,3.2Z" transform="translate(-934.8 -483.8)"/><path class="cls-1" d="M994.1,578.8c.1.4.3.8,0,1.2s-.4.4-.6.6a4.9,4.9,0,0,0,0-1.7c0-.2-.2-.4-.1-.6h.1c0-.1.2,0,.2,0s.3.4.4.6Z" transform="translate(-934.8 -483.8)"/><path class="cls-5" d="M1000.7,578.9a8.7,8.7,0,0,0-2.8,1.9l.3-1c.7-.6,1.7-1.4,2.5-.9Z" transform="translate(-934.8 -483.8)"/><path class="cls-5" d="M1002.3,582.5c-.5,2.7-2.4,6.6-1.4,10.6-2.2-3.4.8-9.6.7-13.7.4.2,1.2.8.7,3.1Z" transform="translate(-934.8 -483.8)"/><path class="cls-1" d="M1013.6,586.8c.3.9.7,1.7,1,2.5v.2c-.5-.3-.7-.9-1.1-1.3s-.6-1.6-1-2.5.1-.2.3-.2.5.9.8,1.3Z" transform="translate(-934.8 -483.8)"/><path class="cls-5" d="M1011.9,593.4c-2,2.9-7.5,5.3-9.7,1.1,4.1.2,6.9-3,9.6-5.5a16.3,16.3,0,0,1,.1,4.4Z" transform="translate(-934.8 -483.8)"/><path class="cls-8" d="M998.4,506c-.2.1-.3.4-.5.3a.2.2,0,0,1-.1-.3,38.5,38.5,0,0,1,2.8-4.5,23.5,23.5,0,0,1-2.2,4.5Z" transform="translate(-934.8 -483.8)"/><path class="cls-8" d="M995.6,507.7a.2.2,0,0,1-.2.2c-1.6-.9-2-2.8-2.2-4.4.8,1.3,1.1,3.1,2.4,4.2Z" transform="translate(-934.8 -483.8)"/><path class="cls-6" d="M993.8,511.1l1.2-.3s-.3.7-.7.8a.5.5,0,0,1-.5-.5Z" transform="translate(-934.8 -483.8)"/><path class="cls-6" d="M993.3,511.1l-.8-.5s-.1.6.2.7a.4.4,0,0,0,.6-.2Z" transform="translate(-934.8 -483.8)"/></svg>